<svg xmlns="http://www.w3.org/2000/svg" viewBox="0 0 800 800" width="800" height="800">
<rect width="800" height="800" fill="#FAF7F2"/>
<circle cx="400.0" cy="400.0" r="336.0" fill="none" stroke="#5A7A5E" stroke-width="1" opacity="0.08"/>
<path d="M 310.0 570.0 L 330.0 690.0 Q 400.0 720.0 470.0 690.0 L 490.0 570.0 Z" fill="#E8DFD0" stroke="#5A7A5E" stroke-width="2" opacity="0.9"/>
<line x1="240.0" y1="560.0" x2="254.0" y2="306.0" stroke="#5A7A5E" stroke-width="4" stroke-linecap="round"/>
<ellipse cx="232.0" cy="433.0" rx="24" ry="10" transform="rotate(-30 232.0 433.0)" fill="#5A7A5E" opacity="0.85"/>
<ellipse cx="262.0" cy="453.0" rx="24" ry="10" transform="rotate(30 262.0 453.0)" fill="#5A7A5E" opacity="0.85"/>
<line x1="314.0" y1="560.0" x2="313.0" y2="303.0" stroke="#5A7A5E" stroke-width="4" stroke-linecap="round"/>
<ellipse cx="298.5" cy="431.5" rx="24" ry="10" transform="rotate(-30 298.5 431.5)" fill="#5A7A5E" opacity="0.85"/>
<ellipse cx="328.5" cy="451.5" rx="24" ry="10" transform="rotate(30 328.5 451.5)" fill="#5A7A5E" opacity="0.85"/>
<line x1="378.0" y1="560.0" x2="366.0" y2="274.0" stroke="#5A7A5E" stroke-width="4" stroke-linecap="round"/>
<ellipse cx="357.0" cy="417.0" rx="24" ry="10" transform="rotate(-30 357.0 417.0)" fill="#5A7A5E" opacity="0.85"/>
<ellipse cx="387.0" cy="437.0" rx="24" ry="10" transform="rotate(30 387.0 437.0)" fill="#5A7A5E" opacity="0.85"/>
<line x1="437.0" y1="560.0" x2="431.0" y2="307.0" stroke="#5A7A5E" stroke-width="4" stroke-linecap="round"/>
<ellipse cx="419.0" cy="433.5" rx="24" ry="10" transform="rotate(-30 419.0 433.5)" fill="#5A7A5E" opacity="0.85"/>
<ellipse cx="449.0" cy="453.5" rx="24" ry="10" transform="rotate(30 449.0 453.5)" fill="#5A7A5E" opacity="0.85"/>
<line x1="487.0" y1="560.0" x2="507.0" y2="332.0" stroke="#5A7A5E" stroke-width="4" stroke-linecap="round"/>
<ellipse cx="482.0" cy="446.0" rx="24" ry="10" transform="rotate(-30 482.0 446.0)" fill="#5A7A5E" opacity="0.85"/>
<ellipse cx="512.0" cy="466.0" rx="24" ry="10" transform="rotate(30 512.0 466.0)" fill="#5A7A5E" opacity="0.85"/>
<ellipse cx="281.0" cy="306.0" rx="24.8" ry="14.4" transform="rotate(0.0 281.0 306.0)" fill="#C97C5D" opacity="0.92"/>
<ellipse cx="273.1" cy="325.1" rx="24.8" ry="14.4" transform="rotate(45.0 273.1 325.1)" fill="#C97C5D" opacity="0.92"/>
<ellipse cx="254.0" cy="333.0" rx="24.8" ry="14.4" transform="rotate(90.0 254.0 333.0)" fill="#C97C5D" opacity="0.92"/>
<ellipse cx="234.9" cy="325.1" rx="24.8" ry="14.4" transform="rotate(135.0 234.9 325.1)" fill="#C97C5D" opacity="0.92"/>
<ellipse cx="227.0" cy="306.0" rx="24.8" ry="14.4" transform="rotate(180.0 227.0 306.0)" fill="#C97C5D" opacity="0.92"/>
<ellipse cx="234.9" cy="286.9" rx="24.8" ry="14.4" transform="rotate(225.0 234.9 286.9)" fill="#C97C5D" opacity="0.92"/>
<ellipse cx="254.0" cy="279.0" rx="24.8" ry="14.4" transform="rotate(270.0 254.0 279.0)" fill="#C97C5D" opacity="0.92"/>
<ellipse cx="273.1" cy="286.9" rx="24.8" ry="14.4" transform="rotate(315.0 273.1 286.9)" fill="#C97C5D" opacity="0.92"/>
<circle cx="254.0" cy="306.0" r="12.6" fill="#D9A441" opacity="0.95"/>
<ellipse cx="344.2" cy="303.0" rx="28.6" ry="16.6" transform="rotate(0.0 344.2 303.0)" fill="#C97C5D" opacity="0.92"/>
<ellipse cx="328.6" cy="330.0" rx="28.6" ry="16.6" transform="rotate(60.0 328.6 330.0)" fill="#C97C5D" opacity="0.92"/>
<ellipse cx="297.4" cy="330.0" rx="28.6" ry="16.6" transform="rotate(120.0 297.4 330.0)" fill="#C97C5D" opacity="0.92"/>
<ellipse cx="281.8" cy="303.0" rx="28.6" ry="16.6" transform="rotate(180.0 281.8 303.0)" fill="#C97C5D" opacity="0.92"/>
<ellipse cx="297.4" cy="276.0" rx="28.6" ry="16.6" transform="rotate(240.0 297.4 276.0)" fill="#C97C5D" opacity="0.92"/>
<ellipse cx="328.6" cy="276.0" rx="28.6" ry="16.6" transform="rotate(300.0 328.6 276.0)" fill="#C97C5D" opacity="0.92"/>
<circle cx="313.0" cy="303.0" r="14.6" fill="#D9A441" opacity="0.95"/>
<ellipse cx="393.0" cy="274.0" rx="24.8" ry="14.4" transform="rotate(0.0 393.0 274.0)" fill="#C97C5D" opacity="0.92"/>
<ellipse cx="379.5" cy="297.4" rx="24.8" ry="14.4" transform="rotate(60.0 379.5 297.4)" fill="#C97C5D" opacity="0.92"/>
<ellipse cx="352.5" cy="297.4" rx="24.8" ry="14.4" transform="rotate(120.0 352.5 297.4)" fill="#C97C5D" opacity="0.92"/>
<ellipse cx="339.0" cy="274.0" rx="24.8" ry="14.4" transform="rotate(180.0 339.0 274.0)" fill="#C97C5D" opacity="0.92"/>
<ellipse cx="352.5" cy="250.6" rx="24.8" ry="14.4" transform="rotate(240.0 352.5 250.6)" fill="#C97C5D" opacity="0.92"/>
<ellipse cx="379.5" cy="250.6" rx="24.8" ry="14.4" transform="rotate(300.0 379.5 250.6)" fill="#C97C5D" opacity="0.92"/>
<circle cx="366.0" cy="274.0" r="12.6" fill="#D9A441" opacity="0.95"/>
<ellipse cx="459.2" cy="307.0" rx="25.9" ry="15.0" transform="rotate(0.0 459.2 307.0)" fill="#C97C5D" opacity="0.92"/>
<ellipse cx="445.1" cy="331.4" rx="25.9" ry="15.0" transform="rotate(60.0 445.1 331.4)" fill="#C97C5D" opacity="0.92"/>
<ellipse cx="416.9" cy="331.4" rx="25.9" ry="15.0" transform="rotate(120.0 416.9 331.4)" fill="#C97C5D" opacity="0.92"/>
<ellipse cx="402.8" cy="307.0" rx="25.9" ry="15.0" transform="rotate(180.0 402.8 307.0)" fill="#C97C5D" opacity="0.92"/>
<ellipse cx="416.9" cy="282.6" rx="25.9" ry="15.0" transform="rotate(240.0 416.9 282.6)" fill="#C97C5D" opacity="0.92"/>
<ellipse cx="445.1" cy="282.6" rx="25.9" ry="15.0" transform="rotate(300.0 445.1 282.6)" fill="#C97C5D" opacity="0.92"/>
<circle cx="431.0" cy="307.0" r="13.2" fill="#D9A441" opacity="0.95"/>
<ellipse cx="535.2" cy="332.0" rx="25.9" ry="15.0" transform="rotate(0.0 535.2 332.0)" fill="#C97C5D" opacity="0.92"/>
<ellipse cx="526.9" cy="351.9" rx="25.9" ry="15.0" transform="rotate(45.0 526.9 351.9)" fill="#C97C5D" opacity="0.92"/>
<ellipse cx="507.0" cy="360.2" rx="25.9" ry="15.0" transform="rotate(90.0 507.0 360.2)" fill="#C97C5D" opacity="0.92"/>
<ellipse cx="487.1" cy="351.9" rx="25.9" ry="15.0" transform="rotate(135.0 487.1 351.9)" fill="#C97C5D" opacity="0.92"/>
<ellipse cx="478.8" cy="332.0" rx="25.9" ry="15.0" transform="rotate(180.0 478.8 332.0)" fill="#C97C5D" opacity="0.92"/>
<ellipse cx="487.1" cy="312.1" rx="25.9" ry="15.0" transform="rotate(225.0 487.1 312.1)" fill="#C97C5D" opacity="0.92"/>
<ellipse cx="507.0" cy="303.8" rx="25.9" ry="15.0" transform="rotate(270.0 507.0 303.8)" fill="#C97C5D" opacity="0.92"/>
<ellipse cx="526.9" cy="312.1" rx="25.9" ry="15.0" transform="rotate(315.0 526.9 312.1)" fill="#C97C5D" opacity="0.92"/>
<circle cx="507.0" cy="332.0" r="13.2" fill="#D9A441" opacity="0.95"/>
<rect x="20" y="20" width="760" height="760" fill="none" stroke="#5A7A5E" stroke-width="1.5" opacity="0.35"/>
</svg>