<svg xmlns="http://www.w3.org/2000/svg" viewBox="0 0 800 800" width="800" height="800">
<rect width="800" height="800" fill="#F3EEE6"/>
<circle cx="400.0" cy="400.0" r="336.0" fill="none" stroke="#3F5C45" stroke-width="1" opacity="0.08"/>
<path d="M 310.0 570.0 L 330.0 690.0 Q 400.0 720.0 470.0 690.0 L 490.0 570.0 Z" fill="#E8DFD0" stroke="#3F5C45" stroke-width="2" opacity="0.9"/>
<line x1="323.0" y1="560.0" x2="322.0" y2="291.0" stroke="#3F5C45" stroke-width="4" stroke-linecap="round"/>
<ellipse cx="307.5" cy="425.5" rx="24" ry="10" transform="rotate(-30 307.5 425.5)" fill="#3F5C45" opacity="0.85"/>
<ellipse cx="337.5" cy="445.5" rx="24" ry="10" transform="rotate(30 337.5 445.5)" fill="#3F5C45" opacity="0.85"/>
<line x1="383.0" y1="560.0" x2="373.0" y2="305.0" stroke="#3F5C45" stroke-width="4" stroke-linecap="round"/>
<ellipse cx="363.0" cy="432.5" rx="24" ry="10" transform="rotate(-30 363.0 432.5)" fill="#3F5C45" opacity="0.85"/>
<ellipse cx="393.0" cy="452.5" rx="24" ry="10" transform="rotate(30 393.0 452.5)" fill="#3F5C45" opacity="0.85"/>
<line x1="431.0" y1="560.0" x2="421.0" y2="327.0" stroke="#3F5C45" stroke-width="4" stroke-linecap="round"/>
<ellipse cx="411.0" cy="443.5" rx="24" ry="10" transform="rotate(-30 411.0 443.5)" fill="#3F5C45" opacity="0.85"/>
<ellipse cx="441.0" cy="463.5" rx="24" ry="10" transform="rotate(30 441.0 463.5)" fill="#3F5C45" opacity="0.85"/>
<ellipse cx="349.0" cy="291.0" rx="24.8" ry="14.4" transform="rotate(0.0 349.0 291.0)" fill="#D9A441" opacity="0.92"/>
<ellipse cx="335.5" cy="314.4" rx="24.8" ry="14.4" transform="rotate(60.0 335.5 314.4)" fill="#D9A441" opacity="0.92"/>
<ellipse cx="308.5" cy="314.4" rx="24.8" ry="14.4" transform="rotate(120.0 308.5 314.4)" fill="#D9A441" opacity="0.92"/>
<ellipse cx="295.0" cy="291.0" rx="24.8" ry="14.4" transform="rotate(180.0 295.0 291.0)" fill="#D9A441" opacity="0.92"/>
<ellipse cx="308.5" cy="267.6" rx="24.8" ry="14.4" transform="rotate(240.0 308.5 267.6)" fill="#D9A441" opacity="0.92"/>
<ellipse cx="335.5" cy="267.6" rx="24.8" ry="14.4" transform="rotate(300.0 335.5 267.6)" fill="#D9A441" opacity="0.92"/>
<circle cx="322.0" cy="291.0" r="12.6" fill="#D9A441" opacity="0.95"/>
<ellipse cx="412.0" cy="305.0" rx="35.8" ry="20.8" transform="rotate(0.0 412.0 305.0)" fill="#D9A441" opacity="0.92"/>
<ellipse cx="385.1" cy="342.1" rx="35.8" ry="20.8" transform="rotate(72.0 385.1 342.1)" fill="#D9A441" opacity="0.92"/>
<ellipse cx="341.4" cy="327.9" rx="35.8" ry="20.8" transform="rotate(144.0 341.4 327.9)" fill="#D9A441" opacity="0.92"/>
<ellipse cx="341.4" cy="282.1" rx="35.8" ry="20.8" transform="rotate(216.0 341.4 282.1)" fill="#D9A441" opacity="0.92"/>
<ellipse cx="385.1" cy="267.9" rx="35.8" ry="20.8" transform="rotate(288.0 385.1 267.9)" fill="#D9A441" opacity="0.92"/>
<circle cx="373.0" cy="305.0" r="18.2" fill="#D9A441" opacity="0.95"/>
<ellipse cx="449.8" cy="327.0" rx="26.4" ry="15.4" transform="rotate(0.0 449.8 327.0)" fill="#D9A441" opacity="0.92"/>
<ellipse cx="429.9" cy="354.4" rx="26.4" ry="15.4" transform="rotate(72.0 429.9 354.4)" fill="#D9A441" opacity="0.92"/>
<ellipse cx="397.7" cy="343.9" rx="26.4" ry="15.4" transform="rotate(144.0 397.7 343.9)" fill="#D9A441" opacity="0.92"/>
<ellipse cx="397.7" cy="310.1" rx="26.4" ry="15.4" transform="rotate(216.0 397.7 310.1)" fill="#D9A441" opacity="0.92"/>
<ellipse cx="429.9" cy="299.6" rx="26.4" ry="15.4" transform="rotate(288.0 429.9 299.6)" fill="#D9A441" opacity="0.92"/>
<circle cx="421.0" cy="327.0" r="13.4" fill="#D9A441" opacity="0.95"/>
<rect x="20" y="20" width="760" height="760" fill="none" stroke="#3F5C45" stroke-width="1.5" opacity="0.35"/>
</svg>