<svg xmlns="http://www.w3.org/2000/svg" viewBox="0 0 800 800" width="800" height="800">
<rect width="800" height="800" fill="#F6F1E9"/>
<circle cx="400.0" cy="400.0" r="336.0" fill="none" stroke="#7C9885" stroke-width="1" opacity="0.08"/>
<path d="M 310.0 570.0 L 330.0 690.0 Q 400.0 720.0 470.0 690.0 L 490.0 570.0 Z" fill="#E8DFD0" stroke="#7C9885" stroke-width="2" opacity="0.9"/>
<line x1="294.0" y1="560.0" x2="304.0" y2="318.0" stroke="#7C9885" stroke-width="4" stroke-linecap="round"/>
<ellipse cx="284.0" cy="439.0" rx="24" ry="10" transform="rotate(-30 284.0 439.0)" fill="#7C9885" opacity="0.85"/>
<ellipse cx="314.0" cy="459.0" rx="24" ry="10" transform="rotate(30 314.0 459.0)" fill="#7C9885" opacity="0.85"/>
<line x1="346.0" y1="560.0" x2="350.0" y2="339.0" stroke="#7C9885" stroke-width="4" stroke-linecap="round"/>
<ellipse cx="333.0" cy="449.5" rx="24" ry="10" transform="rotate(-30 333.0 449.5)" fill="#7C9885" opacity="0.85"/>
<ellipse cx="363.0" cy="469.5" rx="24" ry="10" transform="rotate(30 363.0 469.5)" fill="#7C9885" opacity="0.85"/>
<line x1="408.0" y1="560.0" x2="392.0" y2="340.0" stroke="#7C9885" stroke-width="4" stroke-linecap="round"/>
<ellipse cx="385.0" cy="450.0" rx="24" ry="10" transform="rotate(-30 385.0 450.0)" fill="#7C9885" opacity="0.85"/>
<ellipse cx="415.0" cy="470.0" rx="24" ry="10" transform="rotate(30 415.0 470.0)" fill="#7C9885" opacity="0.85"/>
<line x1="466.0" y1="560.0" x2="464.0" y2="325.0" stroke="#7C9885" stroke-width="4" stroke-linecap="round"/>
<ellipse cx="450.0" cy="442.5" rx="24" ry="10" transform="rotate(-30 450.0 442.5)" fill="#7C9885" opacity="0.85"/>
<ellipse cx="480.0" cy="462.5" rx="24" ry="10" transform="rotate(30 480.0 462.5)" fill="#7C9885" opacity="0.85"/>
<ellipse cx="332.2" cy="318.0" rx="25.9" ry="15.0" transform="rotate(0.0 332.2 318.0)" fill="#D9A441" opacity="0.92"/>
<ellipse cx="323.9" cy="337.9" rx="25.9" ry="15.0" transform="rotate(45.0 323.9 337.9)" fill="#D9A441" opacity="0.92"/>
<ellipse cx="304.0" cy="346.2" rx="25.9" ry="15.0" transform="rotate(90.0 304.0 346.2)" fill="#D9A441" opacity="0.92"/>
<ellipse cx="284.1" cy="337.9" rx="25.9" ry="15.0" transform="rotate(135.0 284.1 337.9)" fill="#D9A441" opacity="0.92"/>
<ellipse cx="275.8" cy="318.0" rx="25.9" ry="15.0" transform="rotate(180.0 275.8 318.0)" fill="#D9A441" opacity="0.92"/>
<ellipse cx="284.1" cy="298.1" rx="25.9" ry="15.0" transform="rotate(225.0 284.1 298.1)" fill="#D9A441" opacity="0.92"/>
<ellipse cx="304.0" cy="289.8" rx="25.9" ry="15.0" transform="rotate(270.0 304.0 289.8)" fill="#D9A441" opacity="0.92"/>
<ellipse cx="323.9" cy="298.1" rx="25.9" ry="15.0" transform="rotate(315.0 323.9 298.1)" fill="#D9A441" opacity="0.92"/>
<circle cx="304.0" cy="318.0" r="13.2" fill="#D9A441" opacity="0.95"/>
<ellipse cx="382.4" cy="339.0" rx="29.7" ry="17.3" transform="rotate(0.0 382.4 339.0)" fill="#D9A441" opacity="0.92"/>
<ellipse cx="372.9" cy="361.9" rx="29.7" ry="17.3" transform="rotate(45.0 372.9 361.9)" fill="#D9A441" opacity="0.92"/>
<ellipse cx="350.0" cy="371.4" rx="29.7" ry="17.3" transform="rotate(90.0 350.0 371.4)" fill="#D9A441" opacity="0.92"/>
<ellipse cx="327.1" cy="361.9" rx="29.7" ry="17.3" transform="rotate(135.0 327.1 361.9)" fill="#D9A441" opacity="0.92"/>
<ellipse cx="317.6" cy="339.0" rx="29.7" ry="17.3" transform="rotate(180.0 317.6 339.0)" fill="#D9A441" opacity="0.92"/>
<ellipse cx="327.1" cy="316.1" rx="29.7" ry="17.3" transform="rotate(225.0 327.1 316.1)" fill="#D9A441" opacity="0.92"/>
<ellipse cx="350.0" cy="306.6" rx="29.7" ry="17.3" transform="rotate(270.0 350.0 306.6)" fill="#D9A441" opacity="0.92"/>
<ellipse cx="372.9" cy="316.1" rx="29.7" ry="17.3" transform="rotate(315.0 372.9 316.1)" fill="#D9A441" opacity="0.92"/>
<circle cx="350.0" cy="339.0" r="15.1" fill="#D9A441" opacity="0.95"/>
<ellipse cx="430.4" cy="340.0" rx="35.2" ry="20.5" transform="rotate(0.0 430.4 340.0)" fill="#D9A441" opacity="0.92"/>
<ellipse cx="403.9" cy="376.5" rx="35.2" ry="20.5" transform="rotate(72.0 403.9 376.5)" fill="#D9A441" opacity="0.92"/>
<ellipse cx="360.9" cy="362.6" rx="35.2" ry="20.5" transform="rotate(144.0 360.9 362.6)" fill="#D9A441" opacity="0.92"/>
<ellipse cx="360.9" cy="317.4" rx="35.2" ry="20.5" transform="rotate(216.0 360.9 317.4)" fill="#D9A441" opacity="0.92"/>
<ellipse cx="403.9" cy="303.5" rx="35.2" ry="20.5" transform="rotate(288.0 403.9 303.5)" fill="#D9A441" opacity="0.92"/>
<circle cx="392.0" cy="340.0" r="17.9" fill="#D9A441" opacity="0.95"/>
<ellipse cx="495.2" cy="325.0" rx="28.6" ry="16.6" transform="rotate(0.0 495.2 325.0)" fill="#D9A441" opacity="0.92"/>
<ellipse cx="486.1" cy="347.1" rx="28.6" ry="16.6" transform="rotate(45.0 486.1 347.1)" fill="#D9A441" opacity="0.92"/>
<ellipse cx="464.0" cy="356.2" rx="28.6" ry="16.6" transform="rotate(90.0 464.0 356.2)" fill="#D9A441" opacity="0.92"/>
<ellipse cx="441.9" cy="347.1" rx="28.6" ry="16.6" transform="rotate(135.0 441.9 347.1)" fill="#D9A441" opacity="0.92"/>
<ellipse cx="432.8" cy="325.0" rx="28.6" ry="16.6" transform="rotate(180.0 432.8 325.0)" fill="#D9A441" opacity="0.92"/>
<ellipse cx="441.9" cy="302.9" rx="28.6" ry="16.6" transform="rotate(225.0 441.9 302.9)" fill="#D9A441" opacity="0.92"/>
<ellipse cx="464.0" cy="293.8" rx="28.6" ry="16.6" transform="rotate(270.0 464.0 293.8)" fill="#D9A441" opacity="0.92"/>
<ellipse cx="486.1" cy="302.9" rx="28.6" ry="16.6" transform="rotate(315.0 486.1 302.9)" fill="#D9A441" opacity="0.92"/>
<circle cx="464.0" cy="325.0" r="14.6" fill="#D9A441" opacity="0.95"/>
<rect x="20" y="20" width="760" height="760" fill="none" stroke="#7C9885" stroke-width="1.5" opacity="0.35"/>
</svg>