<svg xmlns="http://www.w3.org/2000/svg" viewBox="0 0 800 800" width="800" height="800">
<rect width="800" height="800" fill="#F6F1E9"/>
<circle cx="400.0" cy="400.0" r="336.0" fill="none" stroke="#3F5C45" stroke-width="1" opacity="0.08"/>
<path d="M 310.0 570.0 L 330.0 690.0 Q 400.0 720.0 470.0 690.0 L 490.0 570.0 Z" fill="#E8DFD0" stroke="#3F5C45" stroke-width="2" opacity="0.9"/>
<line x1="274.0" y1="560.0" x2="276.0" y2="306.0" stroke="#3F5C45" stroke-width="4" stroke-linecap="round"/>
<ellipse cx="260.0" cy="433.0" rx="24" ry="10" transform="rotate(-30 260.0 433.0)" fill="#3F5C45" opacity="0.85"/>
<ellipse cx="290.0" cy="453.0" rx="24" ry="10" transform="rotate(30 290.0 453.0)" fill="#3F5C45" opacity="0.85"/>
<line x1="351.0" y1="560.0" x2="333.0" y2="317.0" stroke="#3F5C45" stroke-width="4" stroke-linecap="round"/>
<ellipse cx="327.0" cy="438.5" rx="24" ry="10" transform="rotate(-30 327.0 438.5)" fill="#3F5C45" opacity="0.85"/>
<ellipse cx="357.0" cy="458.5" rx="24" ry="10" transform="rotate(30 357.0 458.5)" fill="#3F5C45" opacity="0.85"/>
<line x1="388.0" y1="560.0" x2="378.0" y2="313.0" stroke="#3F5C45" stroke-width="4" stroke-linecap="round"/>
<ellipse cx="368.0" cy="436.5" rx="24" ry="10" transform="rotate(-30 368.0 436.5)" fill="#3F5C45" opacity="0.85"/>
<ellipse cx="398.0" cy="456.5" rx="24" ry="10" transform="rotate(30 398.0 456.5)" fill="#3F5C45" opacity="0.85"/>
<line x1="463.0" y1="560.0" x2="456.0" y2="279.0" stroke="#3F5C45" stroke-width="4" stroke-linecap="round"/>
<ellipse cx="444.5" cy="419.5" rx="24" ry="10" transform="rotate(-30 444.5 419.5)" fill="#3F5C45" opacity="0.85"/>
<ellipse cx="474.5" cy="439.5" rx="24" ry="10" transform="rotate(30 474.5 439.5)" fill="#3F5C45" opacity="0.85"/>
<ellipse cx="314.4" cy="306.0" rx="35.2" ry="20.5" transform="rotate(0.0 314.4 306.0)" fill="#9B8AC4" opacity="0.92"/>
<ellipse cx="303.2" cy="333.2" rx="35.2" ry="20.5" transform="rotate(45.0 303.2 333.2)" fill="#9B8AC4" opacity="0.92"/>
<ellipse cx="276.0" cy="344.4" rx="35.2" ry="20.5" transform="rotate(90.0 276.0 344.4)" fill="#9B8AC4" opacity="0.92"/>
<ellipse cx="248.8" cy="333.2" rx="35.2" ry="20.5" transform="rotate(135.0 248.8 333.2)" fill="#9B8AC4" opacity="0.92"/>
<ellipse cx="237.6" cy="306.0" rx="35.2" ry="20.5" transform="rotate(180.0 237.6 306.0)" fill="#9B8AC4" opacity="0.92"/>
<ellipse cx="248.8" cy="278.8" rx="35.2" ry="20.5" transform="rotate(225.0 248.8 278.8)" fill="#9B8AC4" opacity="0.92"/>
<ellipse cx="276.0" cy="267.6" rx="35.2" ry="20.5" transform="rotate(270.0 276.0 267.6)" fill="#9B8AC4" opacity="0.92"/>
<ellipse cx="303.2" cy="278.8" rx="35.2" ry="20.5" transform="rotate(315.0 303.2 278.8)" fill="#9B8AC4" opacity="0.92"/>
<circle cx="276.0" cy="306.0" r="17.9" fill="#D9A441" opacity="0.95"/>
<ellipse cx="360.6" cy="317.0" rx="25.3" ry="14.7" transform="rotate(0.0 360.6 317.0)" fill="#9B8AC4" opacity="0.92"/>
<ellipse cx="346.8" cy="340.9" rx="25.3" ry="14.7" transform="rotate(60.0 346.8 340.9)" fill="#9B8AC4" opacity="0.92"/>
<ellipse cx="319.2" cy="340.9" rx="25.3" ry="14.7" transform="rotate(120.0 319.2 340.9)" fill="#9B8AC4" opacity="0.92"/>
<ellipse cx="305.4" cy="317.0" rx="25.3" ry="14.7" transform="rotate(180.0 305.4 317.0)" fill="#9B8AC4" opacity="0.92"/>
<ellipse cx="319.2" cy="293.1" rx="25.3" ry="14.7" transform="rotate(240.0 319.2 293.1)" fill="#9B8AC4" opacity="0.92"/>
<ellipse cx="346.8" cy="293.1" rx="25.3" ry="14.7" transform="rotate(300.0 346.8 293.1)" fill="#9B8AC4" opacity="0.92"/>
<circle cx="333.0" cy="317.0" r="12.9" fill="#D9A441" opacity="0.95"/>
<ellipse cx="409.2" cy="313.0" rx="28.6" ry="16.6" transform="rotate(0.0 409.2 313.0)" fill="#9B8AC4" opacity="0.92"/>
<ellipse cx="387.6" cy="342.7" rx="28.6" ry="16.6" transform="rotate(72.0 387.6 342.7)" fill="#9B8AC4" opacity="0.92"/>
<ellipse cx="352.8" cy="331.3" rx="28.6" ry="16.6" transform="rotate(144.0 352.8 331.3)" fill="#9B8AC4" opacity="0.92"/>
<ellipse cx="352.8" cy="294.7" rx="28.6" ry="16.6" transform="rotate(216.0 352.8 294.7)" fill="#9B8AC4" opacity="0.92"/>
<ellipse cx="387.6" cy="283.3" rx="28.6" ry="16.6" transform="rotate(288.0 387.6 283.3)" fill="#9B8AC4" opacity="0.92"/>
<circle cx="378.0" cy="313.0" r="14.6" fill="#D9A441" opacity="0.95"/>
<ellipse cx="489.0" cy="279.0" rx="30.3" ry="17.6" transform="rotate(0.0 489.0 279.0)" fill="#9B8AC4" opacity="0.92"/>
<ellipse cx="479.3" cy="302.3" rx="30.3" ry="17.6" transform="rotate(45.0 479.3 302.3)" fill="#9B8AC4" opacity="0.92"/>
<ellipse cx="456.0" cy="312.0" rx="30.3" ry="17.6" transform="rotate(90.0 456.0 312.0)" fill="#9B8AC4" opacity="0.92"/>
<ellipse cx="432.7" cy="302.3" rx="30.3" ry="17.6" transform="rotate(135.0 432.7 302.3)" fill="#9B8AC4" opacity="0.92"/>
<ellipse cx="423.0" cy="279.0" rx="30.3" ry="17.6" transform="rotate(180.0 423.0 279.0)" fill="#9B8AC4" opacity="0.92"/>
<ellipse cx="432.7" cy="255.7" rx="30.3" ry="17.6" transform="rotate(225.0 432.7 255.7)" fill="#9B8AC4" opacity="0.92"/>
<ellipse cx="456.0" cy="246.0" rx="30.3" ry="17.6" transform="rotate(270.0 456.0 246.0)" fill="#9B8AC4" opacity="0.92"/>
<ellipse cx="479.3" cy="255.7" rx="30.3" ry="17.6" transform="rotate(315.0 479.3 255.7)" fill="#9B8AC4" opacity="0.92"/>
<circle cx="456.0" cy="279.0" r="15.4" fill="#D9A441" opacity="0.95"/>
<rect x="20" y="20" width="760" height="760" fill="none" stroke="#3F5C45" stroke-width="1.5" opacity="0.35"/>
</svg>