<svg xmlns="http://www.w3.org/2000/svg" viewBox="0 0 800 800" width="800" height="800">
<rect width="800" height="800" fill="#F3EEE6"/>
<circle cx="400.0" cy="400.0" r="336.0" fill="none" stroke="#7C9885" stroke-width="1" opacity="0.08"/>
<path d="M 310.0 570.0 L 330.0 690.0 Q 400.0 720.0 470.0 690.0 L 490.0 570.0 Z" fill="#E8DFD0" stroke="#7C9885" stroke-width="2" opacity="0.9"/>
<line x1="244.0" y1="560.0" x2="234.0" y2="328.0" stroke="#7C9885" stroke-width="4" stroke-linecap="round"/>
<ellipse cx="224.0" cy="444.0" rx="24" ry="10" transform="rotate(-30 224.0 444.0)" fill="#7C9885" opacity="0.85"/>
<ellipse cx="254.0" cy="464.0" rx="24" ry="10" transform="rotate(30 254.0 464.0)" fill="#7C9885" opacity="0.85"/>
<line x1="316.0" y1="560.0" x2="306.0" y2="317.0" stroke="#7C9885" stroke-width="4" stroke-linecap="round"/>
<ellipse cx="296.0" cy="438.5" rx="24" ry="10" transform="rotate(-30 296.0 438.5)" fill="#7C9885" opacity="0.85"/>
<ellipse cx="326.0" cy="458.5" rx="24" ry="10" transform="rotate(30 326.0 458.5)" fill="#7C9885" opacity="0.85"/>
<line x1="379.0" y1="560.0" x2="386.0" y2="346.0" stroke="#7C9885" stroke-width="4" stroke-linecap="round"/>
<ellipse cx="367.5" cy="453.0" rx="24" ry="10" transform="rotate(-30 367.5 453.0)" fill="#7C9885" opacity="0.85"/>
<ellipse cx="397.5" cy="473.0" rx="24" ry="10" transform="rotate(30 397.5 473.0)" fill="#7C9885" opacity="0.85"/>
<line x1="430.0" y1="560.0" x2="416.0" y2="276.0" stroke="#7C9885" stroke-width="4" stroke-linecap="round"/>
<ellipse cx="408.0" cy="418.0" rx="24" ry="10" transform="rotate(-30 408.0 418.0)" fill="#7C9885" opacity="0.85"/>
<ellipse cx="438.0" cy="438.0" rx="24" ry="10" transform="rotate(30 438.0 438.0)" fill="#7C9885" opacity="0.85"/>
<line x1="481.0" y1="560.0" x2="496.0" y2="311.0" stroke="#7C9885" stroke-width="4" stroke-linecap="round"/>
<ellipse cx="473.5" cy="435.5" rx="24" ry="10" transform="rotate(-30 473.5 435.5)" fill="#7C9885" opacity="0.85"/>
<ellipse cx="503.5" cy="455.5" rx="24" ry="10" transform="rotate(30 503.5 455.5)" fill="#7C9885" opacity="0.85"/>
<ellipse cx="263.4" cy="328.0" rx="27.0" ry="15.7" transform="rotate(0.0 263.4 328.0)" fill="#C97C5D" opacity="0.92"/>
<ellipse cx="243.1" cy="356.0" rx="27.0" ry="15.7" transform="rotate(72.0 243.1 356.0)" fill="#C97C5D" opacity="0.92"/>
<ellipse cx="210.2" cy="345.3" rx="27.0" ry="15.7" transform="rotate(144.0 210.2 345.3)" fill="#C97C5D" opacity="0.92"/>
<ellipse cx="210.2" cy="310.7" rx="27.0" ry="15.7" transform="rotate(216.0 210.2 310.7)" fill="#C97C5D" opacity="0.92"/>
<ellipse cx="243.1" cy="300.0" rx="27.0" ry="15.7" transform="rotate(288.0 243.1 300.0)" fill="#C97C5D" opacity="0.92"/>
<circle cx="234.0" cy="328.0" r="13.7" fill="#D9A441" opacity="0.95"/>
<ellipse cx="342.0" cy="317.0" rx="33.0" ry="19.2" transform="rotate(0.0 342.0 317.0)" fill="#C97C5D" opacity="0.92"/>
<ellipse cx="317.1" cy="351.2" rx="33.0" ry="19.2" transform="rotate(72.0 317.1 351.2)" fill="#C97C5D" opacity="0.92"/>
<ellipse cx="276.9" cy="338.2" rx="33.0" ry="19.2" transform="rotate(144.0 276.9 338.2)" fill="#C97C5D" opacity="0.92"/>
<ellipse cx="276.9" cy="295.8" rx="33.0" ry="19.2" transform="rotate(216.0 276.9 295.8)" fill="#C97C5D" opacity="0.92"/>
<ellipse cx="317.1" cy="282.8" rx="33.0" ry="19.2" transform="rotate(288.0 317.1 282.8)" fill="#C97C5D" opacity="0.92"/>
<circle cx="306.0" cy="317.0" r="16.8" fill="#D9A441" opacity="0.95"/>
<ellipse cx="425.0" cy="346.0" rx="35.8" ry="20.8" transform="rotate(0.0 425.0 346.0)" fill="#C97C5D" opacity="0.92"/>
<ellipse cx="405.5" cy="379.8" rx="35.8" ry="20.8" transform="rotate(60.0 405.5 379.8)" fill="#C97C5D" opacity="0.92"/>
<ellipse cx="366.5" cy="379.8" rx="35.8" ry="20.8" transform="rotate(120.0 366.5 379.8)" fill="#C97C5D" opacity="0.92"/>
<ellipse cx="347.0" cy="346.0" rx="35.8" ry="20.8" transform="rotate(180.0 347.0 346.0)" fill="#C97C5D" opacity="0.92"/>
<ellipse cx="366.5" cy="312.2" rx="35.8" ry="20.8" transform="rotate(240.0 366.5 312.2)" fill="#C97C5D" opacity="0.92"/>
<ellipse cx="405.5" cy="312.2" rx="35.8" ry="20.8" transform="rotate(300.0 405.5 312.2)" fill="#C97C5D" opacity="0.92"/>
<circle cx="386.0" cy="346.0" r="18.2" fill="#D9A441" opacity="0.95"/>
<ellipse cx="449.6" cy="276.0" rx="30.8" ry="17.9" transform="rotate(0.0 449.6 276.0)" fill="#C97C5D" opacity="0.92"/>
<ellipse cx="432.8" cy="305.1" rx="30.8" ry="17.9" transform="rotate(60.0 432.8 305.1)" fill="#C97C5D" opacity="0.92"/>
<ellipse cx="399.2" cy="305.1" rx="30.8" ry="17.9" transform="rotate(120.0 399.2 305.1)" fill="#C97C5D" opacity="0.92"/>
<ellipse cx="382.4" cy="276.0" rx="30.8" ry="17.9" transform="rotate(180.0 382.4 276.0)" fill="#C97C5D" opacity="0.92"/>
<ellipse cx="399.2" cy="246.9" rx="30.8" ry="17.9" transform="rotate(240.0 399.2 246.9)" fill="#C97C5D" opacity="0.92"/>
<ellipse cx="432.8" cy="246.9" rx="30.8" ry="17.9" transform="rotate(300.0 432.8 246.9)" fill="#C97C5D" opacity="0.92"/>
<circle cx="416.0" cy="276.0" r="15.7" fill="#D9A441" opacity="0.95"/>
<ellipse cx="524.2" cy="311.0" rx="25.9" ry="15.0" transform="rotate(0.0 524.2 311.0)" fill="#C97C5D" opacity="0.92"/>
<ellipse cx="510.1" cy="335.4" rx="25.9" ry="15.0" transform="rotate(60.0 510.1 335.4)" fill="#C97C5D" opacity="0.92"/>
<ellipse cx="481.9" cy="335.4" rx="25.9" ry="15.0" transform="rotate(120.0 481.9 335.4)" fill="#C97C5D" opacity="0.92"/>
<ellipse cx="467.8" cy="311.0" rx="25.9" ry="15.0" transform="rotate(180.0 467.8 311.0)" fill="#C97C5D" opacity="0.92"/>
<ellipse cx="481.9" cy="286.6" rx="25.9" ry="15.0" transform="rotate(240.0 481.9 286.6)" fill="#C97C5D" opacity="0.92"/>
<ellipse cx="510.1" cy="286.6" rx="25.9" ry="15.0" transform="rotate(300.0 510.1 286.6)" fill="#C97C5D" opacity="0.92"/>
<circle cx="496.0" cy="311.0" r="13.2" fill="#D9A441" opacity="0.95"/>
<rect x="20" y="20" width="760" height="760" fill="none" stroke="#7C9885" stroke-width="1.5" opacity="0.35"/>
</svg>