<svg xmlns="http://www.w3.org/2000/svg" viewBox="0 0 800 800" width="800" height="800">
<rect width="800" height="800" fill="#F3EEE6"/>
<circle cx="400.0" cy="400.0" r="336.0" fill="none" stroke="#7C9885" stroke-width="1" opacity="0.08"/>
<line x1="257.0" y1="560.0" x2="270.0" y2="289.0" stroke="#7C9885" stroke-width="4" stroke-linecap="round"/>
<ellipse cx="248.5" cy="424.5" rx="24" ry="10" transform="rotate(-30 248.5 424.5)" fill="#7C9885" opacity="0.85"/>
<ellipse cx="278.5" cy="444.5" rx="24" ry="10" transform="rotate(30 278.5 444.5)" fill="#7C9885" opacity="0.85"/>
<line x1="306.0" y1="560.0" x2="287.0" y2="292.0" stroke="#7C9885" stroke-width="4" stroke-linecap="round"/>
<ellipse cx="281.5" cy="426.0" rx="24" ry="10" transform="rotate(-30 281.5 426.0)" fill="#7C9885" opacity="0.85"/>
<ellipse cx="311.5" cy="446.0" rx="24" ry="10" transform="rotate(30 311.5 446.0)" fill="#7C9885" opacity="0.85"/>
<line x1="382.0" y1="560.0" x2="372.0" y2="346.0" stroke="#7C9885" stroke-width="4" stroke-linecap="round"/>
<ellipse cx="362.0" cy="453.0" rx="24" ry="10" transform="rotate(-30 362.0 453.0)" fill="#7C9885" opacity="0.85"/>
<ellipse cx="392.0" cy="473.0" rx="24" ry="10" transform="rotate(30 392.0 473.0)" fill="#7C9885" opacity="0.85"/>
<line x1="426.0" y1="560.0" x2="422.0" y2="334.0" stroke="#7C9885" stroke-width="4" stroke-linecap="round"/>
<ellipse cx="409.0" cy="447.0" rx="24" ry="10" transform="rotate(-30 409.0 447.0)" fill="#7C9885" opacity="0.85"/>
<ellipse cx="439.0" cy="467.0" rx="24" ry="10" transform="rotate(30 439.0 467.0)" fill="#7C9885" opacity="0.85"/>
<line x1="503.0" y1="560.0" x2="493.0" y2="343.0" stroke="#7C9885" stroke-width="4" stroke-linecap="round"/>
<ellipse cx="483.0" cy="451.5" rx="24" ry="10" transform="rotate(-30 483.0 451.5)" fill="#7C9885" opacity="0.85"/>
<ellipse cx="513.0" cy="471.5" rx="24" ry="10" transform="rotate(30 513.0 471.5)" fill="#7C9885" opacity="0.85"/>
<ellipse cx="297.6" cy="289.0" rx="25.3" ry="14.7" transform="rotate(0.0 297.6 289.0)" fill="#8C3A3A" opacity="0.92"/>
<ellipse cx="283.8" cy="312.9" rx="25.3" ry="14.7" transform="rotate(60.0 283.8 312.9)" fill="#8C3A3A" opacity="0.92"/>
<ellipse cx="256.2" cy="312.9" rx="25.3" ry="14.7" transform="rotate(120.0 256.2 312.9)" fill="#8C3A3A" opacity="0.92"/>
<ellipse cx="242.4" cy="289.0" rx="25.3" ry="14.7" transform="rotate(180.0 242.4 289.0)" fill="#8C3A3A" opacity="0.92"/>
<ellipse cx="256.2" cy="265.1" rx="25.3" ry="14.7" transform="rotate(240.0 256.2 265.1)" fill="#8C3A3A" opacity="0.92"/>
<ellipse cx="283.8" cy="265.1" rx="25.3" ry="14.7" transform="rotate(300.0 283.8 265.1)" fill="#8C3A3A" opacity="0.92"/>
<circle cx="270.0" cy="289.0" r="12.9" fill="#D9A441" opacity="0.95"/>
<ellipse cx="318.2" cy="292.0" rx="28.6" ry="16.6" transform="rotate(0.0 318.2 292.0)" fill="#8C3A3A" opacity="0.92"/>
<ellipse cx="302.6" cy="319.0" rx="28.6" ry="16.6" transform="rotate(60.0 302.6 319.0)" fill="#8C3A3A" opacity="0.92"/>
<ellipse cx="271.4" cy="319.0" rx="28.6" ry="16.6" transform="rotate(120.0 271.4 319.0)" fill="#8C3A3A" opacity="0.92"/>
<ellipse cx="255.8" cy="292.0" rx="28.6" ry="16.6" transform="rotate(180.0 255.8 292.0)" fill="#8C3A3A" opacity="0.92"/>
<ellipse cx="271.4" cy="265.0" rx="28.6" ry="16.6" transform="rotate(240.0 271.4 265.0)" fill="#8C3A3A" opacity="0.92"/>
<ellipse cx="302.6" cy="265.0" rx="28.6" ry="16.6" transform="rotate(300.0 302.6 265.0)" fill="#8C3A3A" opacity="0.92"/>
<circle cx="287.0" cy="292.0" r="14.6" fill="#D9A441" opacity="0.95"/>
<ellipse cx="402.6" cy="346.0" rx="28.1" ry="16.3" transform="rotate(0.0 402.6 346.0)" fill="#8C3A3A" opacity="0.92"/>
<ellipse cx="381.5" cy="375.1" rx="28.1" ry="16.3" transform="rotate(72.0 381.5 375.1)" fill="#8C3A3A" opacity="0.92"/>
<ellipse cx="347.2" cy="364.0" rx="28.1" ry="16.3" transform="rotate(144.0 347.2 364.0)" fill="#8C3A3A" opacity="0.92"/>
<ellipse cx="347.2" cy="328.0" rx="28.1" ry="16.3" transform="rotate(216.0 347.2 328.0)" fill="#8C3A3A" opacity="0.92"/>
<ellipse cx="381.5" cy="316.9" rx="28.1" ry="16.3" transform="rotate(288.0 381.5 316.9)" fill="#8C3A3A" opacity="0.92"/>
<circle cx="372.0" cy="346.0" r="14.3" fill="#D9A441" opacity="0.95"/>
<ellipse cx="451.4" cy="334.0" rx="27.0" ry="15.7" transform="rotate(0.0 451.4 334.0)" fill="#8C3A3A" opacity="0.92"/>
<ellipse cx="431.1" cy="362.0" rx="27.0" ry="15.7" transform="rotate(72.0 431.1 362.0)" fill="#8C3A3A" opacity="0.92"/>
<ellipse cx="398.2" cy="351.3" rx="27.0" ry="15.7" transform="rotate(144.0 398.2 351.3)" fill="#8C3A3A" opacity="0.92"/>
<ellipse cx="398.2" cy="316.7" rx="27.0" ry="15.7" transform="rotate(216.0 398.2 316.7)" fill="#8C3A3A" opacity="0.92"/>
<ellipse cx="431.1" cy="306.0" rx="27.0" ry="15.7" transform="rotate(288.0 431.1 306.0)" fill="#8C3A3A" opacity="0.92"/>
<circle cx="422.0" cy="334.0" r="13.7" fill="#D9A441" opacity="0.95"/>
<ellipse cx="526.6" cy="343.0" rx="30.8" ry="17.9" transform="rotate(0.0 526.6 343.0)" fill="#8C3A3A" opacity="0.92"/>
<ellipse cx="516.8" cy="366.8" rx="30.8" ry="17.9" transform="rotate(45.0 516.8 366.8)" fill="#8C3A3A" opacity="0.92"/>
<ellipse cx="493.0" cy="376.6" rx="30.8" ry="17.9" transform="rotate(90.0 493.0 376.6)" fill="#8C3A3A" opacity="0.92"/>
<ellipse cx="469.2" cy="366.8" rx="30.8" ry="17.9" transform="rotate(135.0 469.2 366.8)" fill="#8C3A3A" opacity="0.92"/>
<ellipse cx="459.4" cy="343.0" rx="30.8" ry="17.9" transform="rotate(180.0 459.4 343.0)" fill="#8C3A3A" opacity="0.92"/>
<ellipse cx="469.2" cy="319.2" rx="30.8" ry="17.9" transform="rotate(225.0 469.2 319.2)" fill="#8C3A3A" opacity="0.92"/>
<ellipse cx="493.0" cy="309.4" rx="30.8" ry="17.9" transform="rotate(270.0 493.0 309.4)" fill="#8C3A3A" opacity="0.92"/>
<ellipse cx="516.8" cy="319.2" rx="30.8" ry="17.9" transform="rotate(315.0 516.8 319.2)" fill="#8C3A3A" opacity="0.92"/>
<circle cx="493.0" cy="343.0" r="15.7" fill="#D9A441" opacity="0.95"/>
<rect x="20" y="20" width="760" height="760" fill="none" stroke="#7C9885" stroke-width="1.5" opacity="0.35"/>
</svg>