<svg xmlns="http://www.w3.org/2000/svg" viewBox="0 0 800 800" width="800" height="800">
<rect width="800" height="800" fill="#F3EEE6"/>
<circle cx="400.0" cy="400.0" r="336.0" fill="none" stroke="#5A7A5E" stroke-width="1" opacity="0.08"/>
<path d="M 310.0 570.0 L 330.0 690.0 Q 400.0 720.0 470.0 690.0 L 490.0 570.0 Z" fill="#E8DFD0" stroke="#5A7A5E" stroke-width="2" opacity="0.9"/>
<line x1="246.0" y1="560.0" x2="261.0" y2="329.0" stroke="#5A7A5E" stroke-width="4" stroke-linecap="round"/>
<ellipse cx="238.5" cy="444.5" rx="24" ry="10" transform="rotate(-30 238.5 444.5)" fill="#5A7A5E" opacity="0.85"/>
<ellipse cx="268.5" cy="464.5" rx="24" ry="10" transform="rotate(30 268.5 464.5)" fill="#5A7A5E" opacity="0.85"/>
<line x1="317.0" y1="560.0" x2="308.0" y2="273.0" stroke="#5A7A5E" stroke-width="4" stroke-linecap="round"/>
<ellipse cx="297.5" cy="416.5" rx="24" ry="10" transform="rotate(-30 297.5 416.5)" fill="#5A7A5E" opacity="0.85"/>
<ellipse cx="327.5" cy="436.5" rx="24" ry="10" transform="rotate(30 327.5 436.5)" fill="#5A7A5E" opacity="0.85"/>
<line x1="367.0" y1="560.0" x2="386.0" y2="313.0" stroke="#5A7A5E" stroke-width="4" stroke-linecap="round"/>
<ellipse cx="361.5" cy="436.5" rx="24" ry="10" transform="rotate(-30 361.5 436.5)" fill="#5A7A5E" opacity="0.85"/>
<ellipse cx="391.5" cy="456.5" rx="24" ry="10" transform="rotate(30 391.5 456.5)" fill="#5A7A5E" opacity="0.85"/>
<line x1="428.0" y1="560.0" x2="445.0" y2="278.0" stroke="#5A7A5E" stroke-width="4" stroke-linecap="round"/>
<ellipse cx="421.5" cy="419.0" rx="24" ry="10" transform="rotate(-30 421.5 419.0)" fill="#5A7A5E" opacity="0.85"/>
<ellipse cx="451.5" cy="439.0" rx="24" ry="10" transform="rotate(30 451.5 439.0)" fill="#5A7A5E" opacity="0.85"/>
<line x1="476.0" y1="560.0" x2="490.0" y2="283.0" stroke="#5A7A5E" stroke-width="4" stroke-linecap="round"/>
<ellipse cx="468.0" cy="421.5" rx="24" ry="10" transform="rotate(-30 468.0 421.5)" fill="#5A7A5E" opacity="0.85"/>
<ellipse cx="498.0" cy="441.5" rx="24" ry="10" transform="rotate(30 498.0 441.5)" fill="#5A7A5E" opacity="0.85"/>
<ellipse cx="299.4" cy="329.0" rx="35.2" ry="20.5" transform="rotate(0.0 299.4 329.0)" fill="#FBF9F5" opacity="0.92"/>
<ellipse cx="288.2" cy="356.2" rx="35.2" ry="20.5" transform="rotate(45.0 288.2 356.2)" fill="#FBF9F5" opacity="0.92"/>
<ellipse cx="261.0" cy="367.4" rx="35.2" ry="20.5" transform="rotate(90.0 261.0 367.4)" fill="#FBF9F5" opacity="0.92"/>
<ellipse cx="233.8" cy="356.2" rx="35.2" ry="20.5" transform="rotate(135.0 233.8 356.2)" fill="#FBF9F5" opacity="0.92"/>
<ellipse cx="222.6" cy="329.0" rx="35.2" ry="20.5" transform="rotate(180.0 222.6 329.0)" fill="#FBF9F5" opacity="0.92"/>
<ellipse cx="233.8" cy="301.8" rx="35.2" ry="20.5" transform="rotate(225.0 233.8 301.8)" fill="#FBF9F5" opacity="0.92"/>
<ellipse cx="261.0" cy="290.6" rx="35.2" ry="20.5" transform="rotate(270.0 261.0 290.6)" fill="#FBF9F5" opacity="0.92"/>
<ellipse cx="288.2" cy="301.8" rx="35.2" ry="20.5" transform="rotate(315.0 288.2 301.8)" fill="#FBF9F5" opacity="0.92"/>
<circle cx="261.0" cy="329.0" r="17.9" fill="#D9A441" opacity="0.95"/>
<circle cx="261.0" cy="329.0" r="54.4" fill="none" stroke="#5A7A5E" stroke-width="1" opacity="0.25"/>
<ellipse cx="344.6" cy="273.0" rx="33.6" ry="19.5" transform="rotate(0.0 344.6 273.0)" fill="#FBF9F5" opacity="0.92"/>
<ellipse cx="319.3" cy="307.8" rx="33.6" ry="19.5" transform="rotate(72.0 319.3 307.8)" fill="#FBF9F5" opacity="0.92"/>
<ellipse cx="278.4" cy="294.5" rx="33.6" ry="19.5" transform="rotate(144.0 278.4 294.5)" fill="#FBF9F5" opacity="0.92"/>
<ellipse cx="278.4" cy="251.5" rx="33.6" ry="19.5" transform="rotate(216.0 278.4 251.5)" fill="#FBF9F5" opacity="0.92"/>
<ellipse cx="319.3" cy="238.2" rx="33.6" ry="19.5" transform="rotate(288.0 319.3 238.2)" fill="#FBF9F5" opacity="0.92"/>
<circle cx="308.0" cy="273.0" r="17.1" fill="#D9A441" opacity="0.95"/>
<circle cx="308.0" cy="273.0" r="51.9" fill="none" stroke="#5A7A5E" stroke-width="1" opacity="0.25"/>
<ellipse cx="420.2" cy="313.0" rx="31.4" ry="18.2" transform="rotate(0.0 420.2 313.0)" fill="#FBF9F5" opacity="0.92"/>
<ellipse cx="403.1" cy="342.6" rx="31.4" ry="18.2" transform="rotate(60.0 403.1 342.6)" fill="#FBF9F5" opacity="0.92"/>
<ellipse cx="368.9" cy="342.6" rx="31.4" ry="18.2" transform="rotate(120.0 368.9 342.6)" fill="#FBF9F5" opacity="0.92"/>
<ellipse cx="351.8" cy="313.0" rx="31.4" ry="18.2" transform="rotate(180.0 351.8 313.0)" fill="#FBF9F5" opacity="0.92"/>
<ellipse cx="368.9" cy="283.4" rx="31.4" ry="18.2" transform="rotate(240.0 368.9 283.4)" fill="#FBF9F5" opacity="0.92"/>
<ellipse cx="403.1" cy="283.4" rx="31.4" ry="18.2" transform="rotate(300.0 403.1 283.4)" fill="#FBF9F5" opacity="0.92"/>
<circle cx="386.0" cy="313.0" r="16.0" fill="#D9A441" opacity="0.95"/>
<circle cx="386.0" cy="313.0" r="48.4" fill="none" stroke="#5A7A5E" stroke-width="1" opacity="0.25"/>
<ellipse cx="476.2" cy="278.0" rx="28.6" ry="16.6" transform="rotate(0.0 476.2 278.0)" fill="#FBF9F5" opacity="0.92"/>
<ellipse cx="467.1" cy="300.1" rx="28.6" ry="16.6" transform="rotate(45.0 467.1 300.1)" fill="#FBF9F5" opacity="0.92"/>
<ellipse cx="445.0" cy="309.2" rx="28.6" ry="16.6" transform="rotate(90.0 445.0 309.2)" fill="#FBF9F5" opacity="0.92"/>
<ellipse cx="422.9" cy="300.1" rx="28.6" ry="16.6" transform="rotate(135.0 422.9 300.1)" fill="#FBF9F5" opacity="0.92"/>
<ellipse cx="413.8" cy="278.0" rx="28.6" ry="16.6" transform="rotate(180.0 413.8 278.0)" fill="#FBF9F5" opacity="0.92"/>
<ellipse cx="422.9" cy="255.9" rx="28.6" ry="16.6" transform="rotate(225.0 422.9 255.9)" fill="#FBF9F5" opacity="0.92"/>
<ellipse cx="445.0" cy="246.8" rx="28.6" ry="16.6" transform="rotate(270.0 445.0 246.8)" fill="#FBF9F5" opacity="0.92"/>
<ellipse cx="467.1" cy="255.9" rx="28.6" ry="16.6" transform="rotate(315.0 467.1 255.9)" fill="#FBF9F5" opacity="0.92"/>
<circle cx="445.0" cy="278.0" r="14.6" fill="#D9A441" opacity="0.95"/>
<circle cx="445.0" cy="278.0" r="44.2" fill="none" stroke="#5A7A5E" stroke-width="1" opacity="0.25"/>
<ellipse cx="519.4" cy="283.0" rx="27.0" ry="15.7" transform="rotate(0.0 519.4 283.0)" fill="#FBF9F5" opacity="0.92"/>
<ellipse cx="499.1" cy="311.0" rx="27.0" ry="15.7" transform="rotate(72.0 499.1 311.0)" fill="#FBF9F5" opacity="0.92"/>
<ellipse cx="466.2" cy="300.3" rx="27.0" ry="15.7" transform="rotate(144.0 466.2 300.3)" fill="#FBF9F5" opacity="0.92"/>
<ellipse cx="466.2" cy="265.7" rx="27.0" ry="15.7" transform="rotate(216.0 466.2 265.7)" fill="#FBF9F5" opacity="0.92"/>
<ellipse cx="499.1" cy="255.0" rx="27.0" ry="15.7" transform="rotate(288.0 499.1 255.0)" fill="#FBF9F5" opacity="0.92"/>
<circle cx="490.0" cy="283.0" r="13.7" fill="#D9A441" opacity="0.95"/>
<circle cx="490.0" cy="283.0" r="41.6" fill="none" stroke="#5A7A5E" stroke-width="1" opacity="0.25"/>
<rect x="20" y="20" width="760" height="760" fill="none" stroke="#5A7A5E" stroke-width="1.5" opacity="0.35"/>
</svg>