<svg xmlns="http://www.w3.org/2000/svg" viewBox="0 0 800 800" width="800" height="800">
<rect width="800" height="800" fill="#F6F1E9"/>
<circle cx="400.0" cy="400.0" r="336.0" fill="none" stroke="#5A7A5E" stroke-width="1" opacity="0.08"/>
<path d="M 310.0 570.0 L 330.0 690.0 Q 400.0 720.0 470.0 690.0 L 490.0 570.0 Z" fill="#E8DFD0" stroke="#5A7A5E" stroke-width="2" opacity="0.9"/>
<line x1="258.0" y1="560.0" x2="242.0" y2="323.0" stroke="#5A7A5E" stroke-width="4" stroke-linecap="round"/>
<ellipse cx="235.0" cy="441.5" rx="24" ry="10" transform="rotate(-30 235.0 441.5)" fill="#5A7A5E" opacity="0.85"/>
<ellipse cx="265.0" cy="461.5" rx="24" ry="10" transform="rotate(30 265.0 461.5)" fill="#5A7A5E" opacity="0.85"/>
<line x1="324.0" y1="560.0" x2="311.0" y2="273.0" stroke="#5A7A5E" stroke-width="4" stroke-linecap="round"/>
<ellipse cx="302.5" cy="416.5" rx="24" ry="10" transform="rotate(-30 302.5 416.5)" fill="#5A7A5E" opacity="0.85"/>
<ellipse cx="332.5" cy="436.5" rx="24" ry="10" transform="rotate(30 332.5 436.5)" fill="#5A7A5E" opacity="0.85"/>
<line x1="375.0" y1="560.0" x2="384.0" y2="302.0" stroke="#5A7A5E" stroke-width="4" stroke-linecap="round"/>
<ellipse cx="364.5" cy="431.0" rx="24" ry="10" transform="rotate(-30 364.5 431.0)" fill="#5A7A5E" opacity="0.85"/>
<ellipse cx="394.5" cy="451.0" rx="24" ry="10" transform="rotate(30 394.5 451.0)" fill="#5A7A5E" opacity="0.85"/>
<line x1="443.0" y1="560.0" x2="430.0" y2="307.0" stroke="#5A7A5E" stroke-width="4" stroke-linecap="round"/>
<ellipse cx="421.5" cy="433.5" rx="24" ry="10" transform="rotate(-30 421.5 433.5)" fill="#5A7A5E" opacity="0.85"/>
<ellipse cx="451.5" cy="453.5" rx="24" ry="10" transform="rotate(30 451.5 453.5)" fill="#5A7A5E" opacity="0.85"/>
<line x1="490.0" y1="560.0" x2="478.0" y2="340.0" stroke="#5A7A5E" stroke-width="4" stroke-linecap="round"/>
<ellipse cx="469.0" cy="450.0" rx="24" ry="10" transform="rotate(-30 469.0 450.0)" fill="#5A7A5E" opacity="0.85"/>
<ellipse cx="499.0" cy="470.0" rx="24" ry="10" transform="rotate(30 499.0 470.0)" fill="#5A7A5E" opacity="0.85"/>
<ellipse cx="273.2" cy="323.0" rx="28.6" ry="16.6" transform="rotate(0.0 273.2 323.0)" fill="#FBF9F5" opacity="0.92"/>
<ellipse cx="264.1" cy="345.1" rx="28.6" ry="16.6" transform="rotate(45.0 264.1 345.1)" fill="#FBF9F5" opacity="0.92"/>
<ellipse cx="242.0" cy="354.2" rx="28.6" ry="16.6" transform="rotate(90.0 242.0 354.2)" fill="#FBF9F5" opacity="0.92"/>
<ellipse cx="219.9" cy="345.1" rx="28.6" ry="16.6" transform="rotate(135.0 219.9 345.1)" fill="#FBF9F5" opacity="0.92"/>
<ellipse cx="210.8" cy="323.0" rx="28.6" ry="16.6" transform="rotate(180.0 210.8 323.0)" fill="#FBF9F5" opacity="0.92"/>
<ellipse cx="219.9" cy="300.9" rx="28.6" ry="16.6" transform="rotate(225.0 219.9 300.9)" fill="#FBF9F5" opacity="0.92"/>
<ellipse cx="242.0" cy="291.8" rx="28.6" ry="16.6" transform="rotate(270.0 242.0 291.8)" fill="#FBF9F5" opacity="0.92"/>
<ellipse cx="264.1" cy="300.9" rx="28.6" ry="16.6" transform="rotate(315.0 264.1 300.9)" fill="#FBF9F5" opacity="0.92"/>
<circle cx="242.0" cy="323.0" r="14.6" fill="#D9A441" opacity="0.95"/>
<circle cx="242.0" cy="323.0" r="44.2" fill="none" stroke="#5A7A5E" stroke-width="1" opacity="0.25"/>
<ellipse cx="338.0" cy="273.0" rx="24.8" ry="14.4" transform="rotate(0.0 338.0 273.0)" fill="#FBF9F5" opacity="0.92"/>
<ellipse cx="319.3" cy="298.7" rx="24.8" ry="14.4" transform="rotate(72.0 319.3 298.7)" fill="#FBF9F5" opacity="0.92"/>
<ellipse cx="289.2" cy="288.9" rx="24.8" ry="14.4" transform="rotate(144.0 289.2 288.9)" fill="#FBF9F5" opacity="0.92"/>
<ellipse cx="289.2" cy="257.1" rx="24.8" ry="14.4" transform="rotate(216.0 289.2 257.1)" fill="#FBF9F5" opacity="0.92"/>
<ellipse cx="319.3" cy="247.3" rx="24.8" ry="14.4" transform="rotate(288.0 319.3 247.3)" fill="#FBF9F5" opacity="0.92"/>
<circle cx="311.0" cy="273.0" r="12.6" fill="#D9A441" opacity="0.95"/>
<circle cx="311.0" cy="273.0" r="38.2" fill="none" stroke="#5A7A5E" stroke-width="1" opacity="0.25"/>
<ellipse cx="415.2" cy="302.0" rx="28.6" ry="16.6" transform="rotate(0.0 415.2 302.0)" fill="#FBF9F5" opacity="0.92"/>
<ellipse cx="393.6" cy="331.7" rx="28.6" ry="16.6" transform="rotate(72.0 393.6 331.7)" fill="#FBF9F5" opacity="0.92"/>
<ellipse cx="358.8" cy="320.3" rx="28.6" ry="16.6" transform="rotate(144.0 358.8 320.3)" fill="#FBF9F5" opacity="0.92"/>
<ellipse cx="358.8" cy="283.7" rx="28.6" ry="16.6" transform="rotate(216.0 358.8 283.7)" fill="#FBF9F5" opacity="0.92"/>
<ellipse cx="393.6" cy="272.3" rx="28.6" ry="16.6" transform="rotate(288.0 393.6 272.3)" fill="#FBF9F5" opacity="0.92"/>
<circle cx="384.0" cy="302.0" r="14.6" fill="#D9A441" opacity="0.95"/>
<circle cx="384.0" cy="302.0" r="44.2" fill="none" stroke="#5A7A5E" stroke-width="1" opacity="0.25"/>
<ellipse cx="459.4" cy="307.0" rx="27.0" ry="15.7" transform="rotate(0.0 459.4 307.0)" fill="#FBF9F5" opacity="0.92"/>
<ellipse cx="450.8" cy="327.8" rx="27.0" ry="15.7" transform="rotate(45.0 450.8 327.8)" fill="#FBF9F5" opacity="0.92"/>
<ellipse cx="430.0" cy="336.4" rx="27.0" ry="15.7" transform="rotate(90.0 430.0 336.4)" fill="#FBF9F5" opacity="0.92"/>
<ellipse cx="409.2" cy="327.8" rx="27.0" ry="15.7" transform="rotate(135.0 409.2 327.8)" fill="#FBF9F5" opacity="0.92"/>
<ellipse cx="400.6" cy="307.0" rx="27.0" ry="15.7" transform="rotate(180.0 400.6 307.0)" fill="#FBF9F5" opacity="0.92"/>
<ellipse cx="409.2" cy="286.2" rx="27.0" ry="15.7" transform="rotate(225.0 409.2 286.2)" fill="#FBF9F5" opacity="0.92"/>
<ellipse cx="430.0" cy="277.6" rx="27.0" ry="15.7" transform="rotate(270.0 430.0 277.6)" fill="#FBF9F5" opacity="0.92"/>
<ellipse cx="450.8" cy="286.2" rx="27.0" ry="15.7" transform="rotate(315.0 450.8 286.2)" fill="#FBF9F5" opacity="0.92"/>
<circle cx="430.0" cy="307.0" r="13.7" fill="#D9A441" opacity="0.95"/>
<circle cx="430.0" cy="307.0" r="41.6" fill="none" stroke="#5A7A5E" stroke-width="1" opacity="0.25"/>
<ellipse cx="514.6" cy="340.0" rx="33.6" ry="19.5" transform="rotate(0.0 514.6 340.0)" fill="#FBF9F5" opacity="0.92"/>
<ellipse cx="496.3" cy="371.7" rx="33.6" ry="19.5" transform="rotate(60.0 496.3 371.7)" fill="#FBF9F5" opacity="0.92"/>
<ellipse cx="459.7" cy="371.7" rx="33.6" ry="19.5" transform="rotate(120.0 459.7 371.7)" fill="#FBF9F5" opacity="0.92"/>
<ellipse cx="441.4" cy="340.0" rx="33.6" ry="19.5" transform="rotate(180.0 441.4 340.0)" fill="#FBF9F5" opacity="0.92"/>
<ellipse cx="459.7" cy="308.3" rx="33.6" ry="19.5" transform="rotate(240.0 459.7 308.3)" fill="#FBF9F5" opacity="0.92"/>
<ellipse cx="496.3" cy="308.3" rx="33.6" ry="19.5" transform="rotate(300.0 496.3 308.3)" fill="#FBF9F5" opacity="0.92"/>
<circle cx="478.0" cy="340.0" r="17.1" fill="#D9A441" opacity="0.95"/>
<circle cx="478.0" cy="340.0" r="51.9" fill="none" stroke="#5A7A5E" stroke-width="1" opacity="0.25"/>
<rect x="20" y="20" width="760" height="760" fill="none" stroke="#5A7A5E" stroke-width="1.5" opacity="0.35"/>
</svg>