<svg xmlns="http://www.w3.org/2000/svg" viewBox="0 0 800 800" width="800" height="800">
<rect width="800" height="800" fill="#F6F1E9"/>
<circle cx="400.0" cy="400.0" r="336.0" fill="none" stroke="#3F5C45" stroke-width="1" opacity="0.08"/>
<line x1="303.0" y1="560.0" x2="320.0" y2="297.0" stroke="#3F5C45" stroke-width="4" stroke-linecap="round"/>
<ellipse cx="296.5" cy="428.5" rx="24" ry="10" transform="rotate(-30 296.5 428.5)" fill="#3F5C45" opacity="0.85"/>
<ellipse cx="326.5" cy="448.5" rx="24" ry="10" transform="rotate(30 326.5 448.5)" fill="#3F5C45" opacity="0.85"/>
<line x1="373.0" y1="560.0" x2="388.0" y2="274.0" stroke="#3F5C45" stroke-width="4" stroke-linecap="round"/>
<ellipse cx="365.5" cy="417.0" rx="24" ry="10" transform="rotate(-30 365.5 417.0)" fill="#3F5C45" opacity="0.85"/>
<ellipse cx="395.5" cy="437.0" rx="24" ry="10" transform="rotate(30 395.5 437.0)" fill="#3F5C45" opacity="0.85"/>
<line x1="441.0" y1="560.0" x2="448.0" y2="310.0" stroke="#3F5C45" stroke-width="4" stroke-linecap="round"/>
<ellipse cx="429.5" cy="435.0" rx="24" ry="10" transform="rotate(-30 429.5 435.0)" fill="#3F5C45" opacity="0.85"/>
<ellipse cx="459.5" cy="455.0" rx="24" ry="10" transform="rotate(30 459.5 455.0)" fill="#3F5C45" opacity="0.85"/>
<ellipse cx="351.2" cy="297.0" rx="28.6" ry="16.6" transform="rotate(0.0 351.2 297.0)" fill="#FBF9F5" opacity="0.92"/>
<ellipse cx="342.1" cy="319.1" rx="28.6" ry="16.6" transform="rotate(45.0 342.1 319.1)" fill="#FBF9F5" opacity="0.92"/>
<ellipse cx="320.0" cy="328.2" rx="28.6" ry="16.6" transform="rotate(90.0 320.0 328.2)" fill="#FBF9F5" opacity="0.92"/>
<ellipse cx="297.9" cy="319.1" rx="28.6" ry="16.6" transform="rotate(135.0 297.9 319.1)" fill="#FBF9F5" opacity="0.92"/>
<ellipse cx="288.8" cy="297.0" rx="28.6" ry="16.6" transform="rotate(180.0 288.8 297.0)" fill="#FBF9F5" opacity="0.92"/>
<ellipse cx="297.9" cy="274.9" rx="28.6" ry="16.6" transform="rotate(225.0 297.9 274.9)" fill="#FBF9F5" opacity="0.92"/>
<ellipse cx="320.0" cy="265.8" rx="28.6" ry="16.6" transform="rotate(270.0 320.0 265.8)" fill="#FBF9F5" opacity="0.92"/>
<ellipse cx="342.1" cy="274.9" rx="28.6" ry="16.6" transform="rotate(315.0 342.1 274.9)" fill="#FBF9F5" opacity="0.92"/>
<circle cx="320.0" cy="297.0" r="14.6" fill="#D9A441" opacity="0.95"/>
<circle cx="320.0" cy="297.0" r="44.2" fill="none" stroke="#3F5C45" stroke-width="1" opacity="0.25"/>
<ellipse cx="424.6" cy="274.0" rx="33.6" ry="19.5" transform="rotate(0.0 424.6 274.0)" fill="#FBF9F5" opacity="0.92"/>
<ellipse cx="406.3" cy="305.7" rx="33.6" ry="19.5" transform="rotate(60.0 406.3 305.7)" fill="#FBF9F5" opacity="0.92"/>
<ellipse cx="369.7" cy="305.7" rx="33.6" ry="19.5" transform="rotate(120.0 369.7 305.7)" fill="#FBF9F5" opacity="0.92"/>
<ellipse cx="351.4" cy="274.0" rx="33.6" ry="19.5" transform="rotate(180.0 351.4 274.0)" fill="#FBF9F5" opacity="0.92"/>
<ellipse cx="369.7" cy="242.3" rx="33.6" ry="19.5" transform="rotate(240.0 369.7 242.3)" fill="#FBF9F5" opacity="0.92"/>
<ellipse cx="406.3" cy="242.3" rx="33.6" ry="19.5" transform="rotate(300.0 406.3 242.3)" fill="#FBF9F5" opacity="0.92"/>
<circle cx="388.0" cy="274.0" r="17.1" fill="#D9A441" opacity="0.95"/>
<circle cx="388.0" cy="274.0" r="51.9" fill="none" stroke="#3F5C45" stroke-width="1" opacity="0.25"/>
<ellipse cx="486.4" cy="310.0" rx="35.2" ry="20.5" transform="rotate(0.0 486.4 310.0)" fill="#FBF9F5" opacity="0.92"/>
<ellipse cx="459.9" cy="346.5" rx="35.2" ry="20.5" transform="rotate(72.0 459.9 346.5)" fill="#FBF9F5" opacity="0.92"/>
<ellipse cx="416.9" cy="332.6" rx="35.2" ry="20.5" transform="rotate(144.0 416.9 332.6)" fill="#FBF9F5" opacity="0.92"/>
<ellipse cx="416.9" cy="287.4" rx="35.2" ry="20.5" transform="rotate(216.0 416.9 287.4)" fill="#FBF9F5" opacity="0.92"/>
<ellipse cx="459.9" cy="273.5" rx="35.2" ry="20.5" transform="rotate(288.0 459.9 273.5)" fill="#FBF9F5" opacity="0.92"/>
<circle cx="448.0" cy="310.0" r="17.9" fill="#D9A441" opacity="0.95"/>
<circle cx="448.0" cy="310.0" r="54.4" fill="none" stroke="#3F5C45" stroke-width="1" opacity="0.25"/>
<rect x="20" y="20" width="760" height="760" fill="none" stroke="#3F5C45" stroke-width="1.5" opacity="0.35"/>
</svg>