<svg xmlns="http://www.w3.org/2000/svg" viewBox="0 0 800 800" width="800" height="800">
<rect width="800" height="800" fill="#FAF7F2"/>
<circle cx="400.0" cy="400.0" r="336.0" fill="none" stroke="#5A7A5E" stroke-width="1" opacity="0.08"/>
<path d="M 310.0 570.0 L 330.0 690.0 Q 400.0 720.0 470.0 690.0 L 490.0 570.0 Z" fill="#E8DFD0" stroke="#5A7A5E" stroke-width="2" opacity="0.9"/>
<line x1="241.0" y1="560.0" x2="233.0" y2="286.0" stroke="#5A7A5E" stroke-width="4" stroke-linecap="round"/>
<ellipse cx="222.0" cy="423.0" rx="24" ry="10" transform="rotate(-30 222.0 423.0)" fill="#5A7A5E" opacity="0.85"/>
<ellipse cx="252.0" cy="443.0" rx="24" ry="10" transform="rotate(30 252.0 443.0)" fill="#5A7A5E" opacity="0.85"/>
<line x1="308.0" y1="560.0" x2="327.0" y2="287.0" stroke="#5A7A5E" stroke-width="4" stroke-linecap="round"/>
<ellipse cx="302.5" cy="423.5" rx="24" ry="10" transform="rotate(-30 302.5 423.5)" fill="#5A7A5E" opacity="0.85"/>
<ellipse cx="332.5" cy="443.5" rx="24" ry="10" transform="rotate(30 332.5 443.5)" fill="#5A7A5E" opacity="0.85"/>
<line x1="385.0" y1="560.0" x2="393.0" y2="313.0" stroke="#5A7A5E" stroke-width="4" stroke-linecap="round"/>
<ellipse cx="374.0" cy="436.5" rx="24" ry="10" transform="rotate(-30 374.0 436.5)" fill="#5A7A5E" opacity="0.85"/>
<ellipse cx="404.0" cy="456.5" rx="24" ry="10" transform="rotate(30 404.0 456.5)" fill="#5A7A5E" opacity="0.85"/>
<line x1="429.0" y1="560.0" x2="420.0" y2="347.0" stroke="#5A7A5E" stroke-width="4" stroke-linecap="round"/>
<ellipse cx="409.5" cy="453.5" rx="24" ry="10" transform="rotate(-30 409.5 453.5)" fill="#5A7A5E" opacity="0.85"/>
<ellipse cx="439.5" cy="473.5" rx="24" ry="10" transform="rotate(30 439.5 473.5)" fill="#5A7A5E" opacity="0.85"/>
<line x1="478.0" y1="560.0" x2="478.0" y2="297.0" stroke="#5A7A5E" stroke-width="4" stroke-linecap="round"/>
<ellipse cx="463.0" cy="428.5" rx="24" ry="10" transform="rotate(-30 463.0 428.5)" fill="#5A7A5E" opacity="0.85"/>
<ellipse cx="493.0" cy="448.5" rx="24" ry="10" transform="rotate(30 493.0 448.5)" fill="#5A7A5E" opacity="0.85"/>
<ellipse cx="272.0" cy="286.0" rx="35.8" ry="20.8" transform="rotate(0.0 272.0 286.0)" fill="#6B8E6F" opacity="0.92"/>
<ellipse cx="260.6" cy="313.6" rx="35.8" ry="20.8" transform="rotate(45.0 260.6 313.6)" fill="#6B8E6F" opacity="0.92"/>
<ellipse cx="233.0" cy="325.0" rx="35.8" ry="20.8" transform="rotate(90.0 233.0 325.0)" fill="#6B8E6F" opacity="0.92"/>
<ellipse cx="205.4" cy="313.6" rx="35.8" ry="20.8" transform="rotate(135.0 205.4 313.6)" fill="#6B8E6F" opacity="0.92"/>
<ellipse cx="194.0" cy="286.0" rx="35.8" ry="20.8" transform="rotate(180.0 194.0 286.0)" fill="#6B8E6F" opacity="0.92"/>
<ellipse cx="205.4" cy="258.4" rx="35.8" ry="20.8" transform="rotate(225.0 205.4 258.4)" fill="#6B8E6F" opacity="0.92"/>
<ellipse cx="233.0" cy="247.0" rx="35.8" ry="20.8" transform="rotate(270.0 233.0 247.0)" fill="#6B8E6F" opacity="0.92"/>
<ellipse cx="260.6" cy="258.4" rx="35.8" ry="20.8" transform="rotate(315.0 260.6 258.4)" fill="#6B8E6F" opacity="0.92"/>
<circle cx="233.0" cy="286.0" r="18.2" fill="#D9A441" opacity="0.95"/>
<ellipse cx="355.2" cy="287.0" rx="25.9" ry="15.0" transform="rotate(0.0 355.2 287.0)" fill="#6B8E6F" opacity="0.92"/>
<ellipse cx="341.1" cy="311.4" rx="25.9" ry="15.0" transform="rotate(60.0 341.1 311.4)" fill="#6B8E6F" opacity="0.92"/>
<ellipse cx="312.9" cy="311.4" rx="25.9" ry="15.0" transform="rotate(120.0 312.9 311.4)" fill="#6B8E6F" opacity="0.92"/>
<ellipse cx="298.8" cy="287.0" rx="25.9" ry="15.0" transform="rotate(180.0 298.8 287.0)" fill="#6B8E6F" opacity="0.92"/>
<ellipse cx="312.9" cy="262.6" rx="25.9" ry="15.0" transform="rotate(240.0 312.9 262.6)" fill="#6B8E6F" opacity="0.92"/>
<ellipse cx="341.1" cy="262.6" rx="25.9" ry="15.0" transform="rotate(300.0 341.1 262.6)" fill="#6B8E6F" opacity="0.92"/>
<circle cx="327.0" cy="287.0" r="13.2" fill="#D9A441" opacity="0.95"/>
<ellipse cx="430.8" cy="313.0" rx="34.7" ry="20.2" transform="rotate(0.0 430.8 313.0)" fill="#6B8E6F" opacity="0.92"/>
<ellipse cx="404.7" cy="348.9" rx="34.7" ry="20.2" transform="rotate(72.0 404.7 348.9)" fill="#6B8E6F" opacity="0.92"/>
<ellipse cx="362.4" cy="335.2" rx="34.7" ry="20.2" transform="rotate(144.0 362.4 335.2)" fill="#6B8E6F" opacity="0.92"/>
<ellipse cx="362.4" cy="290.8" rx="34.7" ry="20.2" transform="rotate(216.0 362.4 290.8)" fill="#6B8E6F" opacity="0.92"/>
<ellipse cx="404.7" cy="277.1" rx="34.7" ry="20.2" transform="rotate(288.0 404.7 277.1)" fill="#6B8E6F" opacity="0.92"/>
<circle cx="393.0" cy="313.0" r="17.6" fill="#D9A441" opacity="0.95"/>
<ellipse cx="459.0" cy="347.0" rx="35.8" ry="20.8" transform="rotate(0.0 459.0 347.0)" fill="#6B8E6F" opacity="0.92"/>
<ellipse cx="439.5" cy="380.8" rx="35.8" ry="20.8" transform="rotate(60.0 439.5 380.8)" fill="#6B8E6F" opacity="0.92"/>
<ellipse cx="400.5" cy="380.8" rx="35.8" ry="20.8" transform="rotate(120.0 400.5 380.8)" fill="#6B8E6F" opacity="0.92"/>
<ellipse cx="381.0" cy="347.0" rx="35.8" ry="20.8" transform="rotate(180.0 381.0 347.0)" fill="#6B8E6F" opacity="0.92"/>
<ellipse cx="400.5" cy="313.2" rx="35.8" ry="20.8" transform="rotate(240.0 400.5 313.2)" fill="#6B8E6F" opacity="0.92"/>
<ellipse cx="439.5" cy="313.2" rx="35.8" ry="20.8" transform="rotate(300.0 439.5 313.2)" fill="#6B8E6F" opacity="0.92"/>
<circle cx="420.0" cy="347.0" r="18.2" fill="#D9A441" opacity="0.95"/>
<ellipse cx="506.2" cy="297.0" rx="25.9" ry="15.0" transform="rotate(0.0 506.2 297.0)" fill="#6B8E6F" opacity="0.92"/>
<ellipse cx="486.7" cy="323.8" rx="25.9" ry="15.0" transform="rotate(72.0 486.7 323.8)" fill="#6B8E6F" opacity="0.92"/>
<ellipse cx="455.2" cy="313.6" rx="25.9" ry="15.0" transform="rotate(144.0 455.2 313.6)" fill="#6B8E6F" opacity="0.92"/>
<ellipse cx="455.2" cy="280.4" rx="25.9" ry="15.0" transform="rotate(216.0 455.2 280.4)" fill="#6B8E6F" opacity="0.92"/>
<ellipse cx="486.7" cy="270.2" rx="25.9" ry="15.0" transform="rotate(288.0 486.7 270.2)" fill="#6B8E6F" opacity="0.92"/>
<circle cx="478.0" cy="297.0" r="13.2" fill="#D9A441" opacity="0.95"/>
<rect x="20" y="20" width="760" height="760" fill="none" stroke="#5A7A5E" stroke-width="1.5" opacity="0.35"/>
</svg>