<svg xmlns="http://www.w3.org/2000/svg" viewBox="0 0 800 800" width="800" height="800">
<rect width="800" height="800" fill="#F3EEE6"/>
<circle cx="400.0" cy="400.0" r="336.0" fill="none" stroke="#5A7A5E" stroke-width="1" opacity="0.08"/>
<path d="M 310.0 570.0 L 330.0 690.0 Q 400.0 720.0 470.0 690.0 L 490.0 570.0 Z" fill="#E8DFD0" stroke="#5A7A5E" stroke-width="2" opacity="0.9"/>
<line x1="294.0" y1="560.0" x2="297.0" y2="341.0" stroke="#5A7A5E" stroke-width="4" stroke-linecap="round"/>
<ellipse cx="280.5" cy="450.5" rx="24" ry="10" transform="rotate(-30 280.5 450.5)" fill="#5A7A5E" opacity="0.85"/>
<ellipse cx="310.5" cy="470.5" rx="24" ry="10" transform="rotate(30 310.5 470.5)" fill="#5A7A5E" opacity="0.85"/>
<line x1="349.0" y1="560.0" x2="358.0" y2="322.0" stroke="#5A7A5E" stroke-width="4" stroke-linecap="round"/>
<ellipse cx="338.5" cy="441.0" rx="24" ry="10" transform="rotate(-30 338.5 441.0)" fill="#5A7A5E" opacity="0.85"/>
<ellipse cx="368.5" cy="461.0" rx="24" ry="10" transform="rotate(30 368.5 461.0)" fill="#5A7A5E" opacity="0.85"/>
<line x1="411.0" y1="560.0" x2="401.0" y2="275.0" stroke="#5A7A5E" stroke-width="4" stroke-linecap="round"/>
<ellipse cx="391.0" cy="417.5" rx="24" ry="10" transform="rotate(-30 391.0 417.5)" fill="#5A7A5E" opacity="0.85"/>
<ellipse cx="421.0" cy="437.5" rx="24" ry="10" transform="rotate(30 421.0 437.5)" fill="#5A7A5E" opacity="0.85"/>
<line x1="448.0" y1="560.0" x2="456.0" y2="312.0" stroke="#5A7A5E" stroke-width="4" stroke-linecap="round"/>
<ellipse cx="437.0" cy="436.0" rx="24" ry="10" transform="rotate(-30 437.0 436.0)" fill="#5A7A5E" opacity="0.85"/>
<ellipse cx="467.0" cy="456.0" rx="24" ry="10" transform="rotate(30 467.0 456.0)" fill="#5A7A5E" opacity="0.85"/>
<ellipse cx="328.2" cy="341.0" rx="28.6" ry="16.6" transform="rotate(0.0 328.2 341.0)" fill="#C97C5D" opacity="0.92"/>
<ellipse cx="319.1" cy="363.1" rx="28.6" ry="16.6" transform="rotate(45.0 319.1 363.1)" fill="#C97C5D" opacity="0.92"/>
<ellipse cx="297.0" cy="372.2" rx="28.6" ry="16.6" transform="rotate(90.0 297.0 372.2)" fill="#C97C5D" opacity="0.92"/>
<ellipse cx="274.9" cy="363.1" rx="28.6" ry="16.6" transform="rotate(135.0 274.9 363.1)" fill="#C97C5D" opacity="0.92"/>
<ellipse cx="265.8" cy="341.0" rx="28.6" ry="16.6" transform="rotate(180.0 265.8 341.0)" fill="#C97C5D" opacity="0.92"/>
<ellipse cx="274.9" cy="318.9" rx="28.6" ry="16.6" transform="rotate(225.0 274.9 318.9)" fill="#C97C5D" opacity="0.92"/>
<ellipse cx="297.0" cy="309.8" rx="28.6" ry="16.6" transform="rotate(270.0 297.0 309.8)" fill="#C97C5D" opacity="0.92"/>
<ellipse cx="319.1" cy="318.9" rx="28.6" ry="16.6" transform="rotate(315.0 319.1 318.9)" fill="#C97C5D" opacity="0.92"/>
<circle cx="297.0" cy="341.0" r="14.6" fill="#D9A441" opacity="0.95"/>
<ellipse cx="392.2" cy="322.0" rx="31.4" ry="18.2" transform="rotate(0.0 392.2 322.0)" fill="#C97C5D" opacity="0.92"/>
<ellipse cx="375.1" cy="351.6" rx="31.4" ry="18.2" transform="rotate(60.0 375.1 351.6)" fill="#C97C5D" opacity="0.92"/>
<ellipse cx="340.9" cy="351.6" rx="31.4" ry="18.2" transform="rotate(120.0 340.9 351.6)" fill="#C97C5D" opacity="0.92"/>
<ellipse cx="323.8" cy="322.0" rx="31.4" ry="18.2" transform="rotate(180.0 323.8 322.0)" fill="#C97C5D" opacity="0.92"/>
<ellipse cx="340.9" cy="292.4" rx="31.4" ry="18.2" transform="rotate(240.0 340.9 292.4)" fill="#C97C5D" opacity="0.92"/>
<ellipse cx="375.1" cy="292.4" rx="31.4" ry="18.2" transform="rotate(300.0 375.1 292.4)" fill="#C97C5D" opacity="0.92"/>
<circle cx="358.0" cy="322.0" r="16.0" fill="#D9A441" opacity="0.95"/>
<ellipse cx="440.0" cy="275.0" rx="35.8" ry="20.8" transform="rotate(0.0 440.0 275.0)" fill="#C97C5D" opacity="0.92"/>
<ellipse cx="413.1" cy="312.1" rx="35.8" ry="20.8" transform="rotate(72.0 413.1 312.1)" fill="#C97C5D" opacity="0.92"/>
<ellipse cx="369.4" cy="297.9" rx="35.8" ry="20.8" transform="rotate(144.0 369.4 297.9)" fill="#C97C5D" opacity="0.92"/>
<ellipse cx="369.4" cy="252.1" rx="35.8" ry="20.8" transform="rotate(216.0 369.4 252.1)" fill="#C97C5D" opacity="0.92"/>
<ellipse cx="413.1" cy="237.9" rx="35.8" ry="20.8" transform="rotate(288.0 413.1 237.9)" fill="#C97C5D" opacity="0.92"/>
<circle cx="401.0" cy="275.0" r="18.2" fill="#D9A441" opacity="0.95"/>
<ellipse cx="489.0" cy="312.0" rx="30.3" ry="17.6" transform="rotate(0.0 489.0 312.0)" fill="#C97C5D" opacity="0.92"/>
<ellipse cx="472.5" cy="340.6" rx="30.3" ry="17.6" transform="rotate(60.0 472.5 340.6)" fill="#C97C5D" opacity="0.92"/>
<ellipse cx="439.5" cy="340.6" rx="30.3" ry="17.6" transform="rotate(120.0 439.5 340.6)" fill="#C97C5D" opacity="0.92"/>
<ellipse cx="423.0" cy="312.0" rx="30.3" ry="17.6" transform="rotate(180.0 423.0 312.0)" fill="#C97C5D" opacity="0.92"/>
<ellipse cx="439.5" cy="283.4" rx="30.3" ry="17.6" transform="rotate(240.0 439.5 283.4)" fill="#C97C5D" opacity="0.92"/>
<ellipse cx="472.5" cy="283.4" rx="30.3" ry="17.6" transform="rotate(300.0 472.5 283.4)" fill="#C97C5D" opacity="0.92"/>
<circle cx="456.0" cy="312.0" r="15.4" fill="#D9A441" opacity="0.95"/>
<rect x="20" y="20" width="760" height="760" fill="none" stroke="#5A7A5E" stroke-width="1.5" opacity="0.35"/>
</svg>