<svg xmlns="http://www.w3.org/2000/svg" viewBox="0 0 800 800" width="800" height="800">
<rect width="800" height="800" fill="#FAF7F2"/>
<circle cx="400.0" cy="400.0" r="336.0" fill="none" stroke="#7C9885" stroke-width="1" opacity="0.08"/>
<path d="M 310.0 570.0 L 330.0 690.0 Q 400.0 720.0 470.0 690.0 L 490.0 570.0 Z" fill="#E8DFD0" stroke="#7C9885" stroke-width="2" opacity="0.9"/>
<line x1="319.0" y1="560.0" x2="316.0" y2="298.0" stroke="#7C9885" stroke-width="4" stroke-linecap="round"/>
<ellipse cx="302.5" cy="429.0" rx="24" ry="10" transform="rotate(-30 302.5 429.0)" fill="#7C9885" opacity="0.85"/>
<ellipse cx="332.5" cy="449.0" rx="24" ry="10" transform="rotate(30 332.5 449.0)" fill="#7C9885" opacity="0.85"/>
<line x1="358.0" y1="560.0" x2="362.0" y2="346.0" stroke="#7C9885" stroke-width="4" stroke-linecap="round"/>
<ellipse cx="345.0" cy="453.0" rx="24" ry="10" transform="rotate(-30 345.0 453.0)" fill="#7C9885" opacity="0.85"/>
<ellipse cx="375.0" cy="473.0" rx="24" ry="10" transform="rotate(30 375.0 473.0)" fill="#7C9885" opacity="0.85"/>
<line x1="432.0" y1="560.0" x2="433.0" y2="279.0" stroke="#7C9885" stroke-width="4" stroke-linecap="round"/>
<ellipse cx="417.5" cy="419.5" rx="24" ry="10" transform="rotate(-30 417.5 419.5)" fill="#7C9885" opacity="0.85"/>
<ellipse cx="447.5" cy="439.5" rx="24" ry="10" transform="rotate(30 447.5 439.5)" fill="#7C9885" opacity="0.85"/>
<ellipse cx="349.0" cy="298.0" rx="30.3" ry="17.6" transform="rotate(0.0 349.0 298.0)" fill="#C97C5D" opacity="0.92"/>
<ellipse cx="326.2" cy="329.4" rx="30.3" ry="17.6" transform="rotate(72.0 326.2 329.4)" fill="#C97C5D" opacity="0.92"/>
<ellipse cx="289.3" cy="317.4" rx="30.3" ry="17.6" transform="rotate(144.0 289.3 317.4)" fill="#C97C5D" opacity="0.92"/>
<ellipse cx="289.3" cy="278.6" rx="30.3" ry="17.6" transform="rotate(216.0 289.3 278.6)" fill="#C97C5D" opacity="0.92"/>
<ellipse cx="326.2" cy="266.6" rx="30.3" ry="17.6" transform="rotate(288.0 326.2 266.6)" fill="#C97C5D" opacity="0.92"/>
<circle cx="316.0" cy="298.0" r="15.4" fill="#D9A441" opacity="0.95"/>
<ellipse cx="392.0" cy="346.0" rx="27.5" ry="16.0" transform="rotate(0.0 392.0 346.0)" fill="#C97C5D" opacity="0.92"/>
<ellipse cx="371.3" cy="374.5" rx="27.5" ry="16.0" transform="rotate(72.0 371.3 374.5)" fill="#C97C5D" opacity="0.92"/>
<ellipse cx="337.7" cy="363.6" rx="27.5" ry="16.0" transform="rotate(144.0 337.7 363.6)" fill="#C97C5D" opacity="0.92"/>
<ellipse cx="337.7" cy="328.4" rx="27.5" ry="16.0" transform="rotate(216.0 337.7 328.4)" fill="#C97C5D" opacity="0.92"/>
<ellipse cx="371.3" cy="317.5" rx="27.5" ry="16.0" transform="rotate(288.0 371.3 317.5)" fill="#C97C5D" opacity="0.92"/>
<circle cx="362.0" cy="346.0" r="14.0" fill="#D9A441" opacity="0.95"/>
<ellipse cx="466.0" cy="279.0" rx="30.3" ry="17.6" transform="rotate(0.0 466.0 279.0)" fill="#C97C5D" opacity="0.92"/>
<ellipse cx="456.3" cy="302.3" rx="30.3" ry="17.6" transform="rotate(45.0 456.3 302.3)" fill="#C97C5D" opacity="0.92"/>
<ellipse cx="433.0" cy="312.0" rx="30.3" ry="17.6" transform="rotate(90.0 433.0 312.0)" fill="#C97C5D" opacity="0.92"/>
<ellipse cx="409.7" cy="302.3" rx="30.3" ry="17.6" transform="rotate(135.0 409.7 302.3)" fill="#C97C5D" opacity="0.92"/>
<ellipse cx="400.0" cy="279.0" rx="30.3" ry="17.6" transform="rotate(180.0 400.0 279.0)" fill="#C97C5D" opacity="0.92"/>
<ellipse cx="409.7" cy="255.7" rx="30.3" ry="17.6" transform="rotate(225.0 409.7 255.7)" fill="#C97C5D" opacity="0.92"/>
<ellipse cx="433.0" cy="246.0" rx="30.3" ry="17.6" transform="rotate(270.0 433.0 246.0)" fill="#C97C5D" opacity="0.92"/>
<ellipse cx="456.3" cy="255.7" rx="30.3" ry="17.6" transform="rotate(315.0 456.3 255.7)" fill="#C97C5D" opacity="0.92"/>
<circle cx="433.0" cy="279.0" r="15.4" fill="#D9A441" opacity="0.95"/>
<rect x="20" y="20" width="760" height="760" fill="none" stroke="#7C9885" stroke-width="1.5" opacity="0.35"/>
</svg>