<svg xmlns="http://www.w3.org/2000/svg" viewBox="0 0 800 800" width="800" height="800">
<rect width="800" height="800" fill="#FAF7F2"/>
<circle cx="400.0" cy="400.0" r="336.0" fill="none" stroke="#5A7A5E" stroke-width="1" opacity="0.08"/>
<path d="M 310.0 570.0 L 330.0 690.0 Q 400.0 720.0 470.0 690.0 L 490.0 570.0 Z" fill="#E8DFD0" stroke="#5A7A5E" stroke-width="2" opacity="0.9"/>
<line x1="243.0" y1="560.0" x2="253.0" y2="348.0" stroke="#5A7A5E" stroke-width="4" stroke-linecap="round"/>
<ellipse cx="233.0" cy="454.0" rx="24" ry="10" transform="rotate(-30 233.0 454.0)" fill="#5A7A5E" opacity="0.85"/>
<ellipse cx="263.0" cy="474.0" rx="24" ry="10" transform="rotate(30 263.0 474.0)" fill="#5A7A5E" opacity="0.85"/>
<line x1="312.0" y1="560.0" x2="307.0" y2="306.0" stroke="#5A7A5E" stroke-width="4" stroke-linecap="round"/>
<ellipse cx="294.5" cy="433.0" rx="24" ry="10" transform="rotate(-30 294.5 433.0)" fill="#5A7A5E" opacity="0.85"/>
<ellipse cx="324.5" cy="453.0" rx="24" ry="10" transform="rotate(30 324.5 453.0)" fill="#5A7A5E" opacity="0.85"/>
<line x1="368.0" y1="560.0" x2="352.0" y2="347.0" stroke="#5A7A5E" stroke-width="4" stroke-linecap="round"/>
<ellipse cx="345.0" cy="453.5" rx="24" ry="10" transform="rotate(-30 345.0 453.5)" fill="#5A7A5E" opacity="0.85"/>
<ellipse cx="375.0" cy="473.5" rx="24" ry="10" transform="rotate(30 375.0 473.5)" fill="#5A7A5E" opacity="0.85"/>
<line x1="424.0" y1="560.0" x2="442.0" y2="334.0" stroke="#5A7A5E" stroke-width="4" stroke-linecap="round"/>
<ellipse cx="418.0" cy="447.0" rx="24" ry="10" transform="rotate(-30 418.0 447.0)" fill="#5A7A5E" opacity="0.85"/>
<ellipse cx="448.0" cy="467.0" rx="24" ry="10" transform="rotate(30 448.0 467.0)" fill="#5A7A5E" opacity="0.85"/>
<line x1="484.0" y1="560.0" x2="482.0" y2="287.0" stroke="#5A7A5E" stroke-width="4" stroke-linecap="round"/>
<ellipse cx="468.0" cy="423.5" rx="24" ry="10" transform="rotate(-30 468.0 423.5)" fill="#5A7A5E" opacity="0.85"/>
<ellipse cx="498.0" cy="443.5" rx="24" ry="10" transform="rotate(30 498.0 443.5)" fill="#5A7A5E" opacity="0.85"/>
<ellipse cx="285.4" cy="348.0" rx="29.7" ry="17.3" transform="rotate(0.0 285.4 348.0)" fill="#7C9885" opacity="0.92"/>
<ellipse cx="269.2" cy="376.1" rx="29.7" ry="17.3" transform="rotate(60.0 269.2 376.1)" fill="#7C9885" opacity="0.92"/>
<ellipse cx="236.8" cy="376.1" rx="29.7" ry="17.3" transform="rotate(120.0 236.8 376.1)" fill="#7C9885" opacity="0.92"/>
<ellipse cx="220.6" cy="348.0" rx="29.7" ry="17.3" transform="rotate(180.0 220.6 348.0)" fill="#7C9885" opacity="0.92"/>
<ellipse cx="236.8" cy="319.9" rx="29.7" ry="17.3" transform="rotate(240.0 236.8 319.9)" fill="#7C9885" opacity="0.92"/>
<ellipse cx="269.2" cy="319.9" rx="29.7" ry="17.3" transform="rotate(300.0 269.2 319.9)" fill="#7C9885" opacity="0.92"/>
<circle cx="253.0" cy="348.0" r="15.1" fill="#D9A441" opacity="0.95"/>
<ellipse cx="340.0" cy="306.0" rx="30.3" ry="17.6" transform="rotate(0.0 340.0 306.0)" fill="#7C9885" opacity="0.92"/>
<ellipse cx="323.5" cy="334.6" rx="30.3" ry="17.6" transform="rotate(60.0 323.5 334.6)" fill="#7C9885" opacity="0.92"/>
<ellipse cx="290.5" cy="334.6" rx="30.3" ry="17.6" transform="rotate(120.0 290.5 334.6)" fill="#7C9885" opacity="0.92"/>
<ellipse cx="274.0" cy="306.0" rx="30.3" ry="17.6" transform="rotate(180.0 274.0 306.0)" fill="#7C9885" opacity="0.92"/>
<ellipse cx="290.5" cy="277.4" rx="30.3" ry="17.6" transform="rotate(240.0 290.5 277.4)" fill="#7C9885" opacity="0.92"/>
<ellipse cx="323.5" cy="277.4" rx="30.3" ry="17.6" transform="rotate(300.0 323.5 277.4)" fill="#7C9885" opacity="0.92"/>
<circle cx="307.0" cy="306.0" r="15.4" fill="#D9A441" opacity="0.95"/>
<ellipse cx="382.6" cy="347.0" rx="28.1" ry="16.3" transform="rotate(0.0 382.6 347.0)" fill="#7C9885" opacity="0.92"/>
<ellipse cx="367.3" cy="373.5" rx="28.1" ry="16.3" transform="rotate(60.0 367.3 373.5)" fill="#7C9885" opacity="0.92"/>
<ellipse cx="336.7" cy="373.5" rx="28.1" ry="16.3" transform="rotate(120.0 336.7 373.5)" fill="#7C9885" opacity="0.92"/>
<ellipse cx="321.4" cy="347.0" rx="28.1" ry="16.3" transform="rotate(180.0 321.4 347.0)" fill="#7C9885" opacity="0.92"/>
<ellipse cx="336.7" cy="320.5" rx="28.1" ry="16.3" transform="rotate(240.0 336.7 320.5)" fill="#7C9885" opacity="0.92"/>
<ellipse cx="367.3" cy="320.5" rx="28.1" ry="16.3" transform="rotate(300.0 367.3 320.5)" fill="#7C9885" opacity="0.92"/>
<circle cx="352.0" cy="347.0" r="14.3" fill="#D9A441" opacity="0.95"/>
<ellipse cx="476.2" cy="334.0" rx="31.4" ry="18.2" transform="rotate(0.0 476.2 334.0)" fill="#7C9885" opacity="0.92"/>
<ellipse cx="459.1" cy="363.6" rx="31.4" ry="18.2" transform="rotate(60.0 459.1 363.6)" fill="#7C9885" opacity="0.92"/>
<ellipse cx="424.9" cy="363.6" rx="31.4" ry="18.2" transform="rotate(120.0 424.9 363.6)" fill="#7C9885" opacity="0.92"/>
<ellipse cx="407.8" cy="334.0" rx="31.4" ry="18.2" transform="rotate(180.0 407.8 334.0)" fill="#7C9885" opacity="0.92"/>
<ellipse cx="424.9" cy="304.4" rx="31.4" ry="18.2" transform="rotate(240.0 424.9 304.4)" fill="#7C9885" opacity="0.92"/>
<ellipse cx="459.1" cy="304.4" rx="31.4" ry="18.2" transform="rotate(300.0 459.1 304.4)" fill="#7C9885" opacity="0.92"/>
<circle cx="442.0" cy="334.0" r="16.0" fill="#D9A441" opacity="0.95"/>
<ellipse cx="509.6" cy="287.0" rx="25.3" ry="14.7" transform="rotate(0.0 509.6 287.0)" fill="#7C9885" opacity="0.92"/>
<ellipse cx="501.5" cy="306.5" rx="25.3" ry="14.7" transform="rotate(45.0 501.5 306.5)" fill="#7C9885" opacity="0.92"/>
<ellipse cx="482.0" cy="314.6" rx="25.3" ry="14.7" transform="rotate(90.0 482.0 314.6)" fill="#7C9885" opacity="0.92"/>
<ellipse cx="462.5" cy="306.5" rx="25.3" ry="14.7" transform="rotate(135.0 462.5 306.5)" fill="#7C9885" opacity="0.92"/>
<ellipse cx="454.4" cy="287.0" rx="25.3" ry="14.7" transform="rotate(180.0 454.4 287.0)" fill="#7C9885" opacity="0.92"/>
<ellipse cx="462.5" cy="267.5" rx="25.3" ry="14.7" transform="rotate(225.0 462.5 267.5)" fill="#7C9885" opacity="0.92"/>
<ellipse cx="482.0" cy="259.4" rx="25.3" ry="14.7" transform="rotate(270.0 482.0 259.4)" fill="#7C9885" opacity="0.92"/>
<ellipse cx="501.5" cy="267.5" rx="25.3" ry="14.7" transform="rotate(315.0 501.5 267.5)" fill="#7C9885" opacity="0.92"/>
<circle cx="482.0" cy="287.0" r="12.9" fill="#D9A441" opacity="0.95"/>
<rect x="20" y="20" width="760" height="760" fill="none" stroke="#5A7A5E" stroke-width="1.5" opacity="0.35"/>
</svg>