<svg xmlns="http://www.w3.org/2000/svg" viewBox="0 0 800 800" width="800" height="800">
<rect width="800" height="800" fill="#F6F1E9"/>
<circle cx="400.0" cy="400.0" r="336.0" fill="none" stroke="#5A7A5E" stroke-width="1" opacity="0.08"/>
<line x1="252.0" y1="560.0" x2="269.0" y2="279.0" stroke="#5A7A5E" stroke-width="4" stroke-linecap="round"/>
<ellipse cx="245.5" cy="419.5" rx="24" ry="10" transform="rotate(-30 245.5 419.5)" fill="#5A7A5E" opacity="0.85"/>
<ellipse cx="275.5" cy="439.5" rx="24" ry="10" transform="rotate(30 275.5 439.5)" fill="#5A7A5E" opacity="0.85"/>
<line x1="303.0" y1="560.0" x2="319.0" y2="338.0" stroke="#5A7A5E" stroke-width="4" stroke-linecap="round"/>
<ellipse cx="296.0" cy="449.0" rx="24" ry="10" transform="rotate(-30 296.0 449.0)" fill="#5A7A5E" opacity="0.85"/>
<ellipse cx="326.0" cy="469.0" rx="24" ry="10" transform="rotate(30 326.0 469.0)" fill="#5A7A5E" opacity="0.85"/>
<line x1="371.0" y1="560.0" x2="361.0" y2="290.0" stroke="#5A7A5E" stroke-width="4" stroke-linecap="round"/>
<ellipse cx="351.0" cy="425.0" rx="24" ry="10" transform="rotate(-30 351.0 425.0)" fill="#5A7A5E" opacity="0.85"/>
<ellipse cx="381.0" cy="445.0" rx="24" ry="10" transform="rotate(30 381.0 445.0)" fill="#5A7A5E" opacity="0.85"/>
<line x1="441.0" y1="560.0" x2="457.0" y2="341.0" stroke="#5A7A5E" stroke-width="4" stroke-linecap="round"/>
<ellipse cx="434.0" cy="450.5" rx="24" ry="10" transform="rotate(-30 434.0 450.5)" fill="#5A7A5E" opacity="0.85"/>
<ellipse cx="464.0" cy="470.5" rx="24" ry="10" transform="rotate(30 464.0 470.5)" fill="#5A7A5E" opacity="0.85"/>
<line x1="496.0" y1="560.0" x2="497.0" y2="270.0" stroke="#5A7A5E" stroke-width="4" stroke-linecap="round"/>
<ellipse cx="481.5" cy="415.0" rx="24" ry="10" transform="rotate(-30 481.5 415.0)" fill="#5A7A5E" opacity="0.85"/>
<ellipse cx="511.5" cy="435.0" rx="24" ry="10" transform="rotate(30 511.5 435.0)" fill="#5A7A5E" opacity="0.85"/>
<ellipse cx="296.6" cy="279.0" rx="25.3" ry="14.7" transform="rotate(0.0 296.6 279.0)" fill="#C97C9D" opacity="0.92"/>
<ellipse cx="277.5" cy="305.2" rx="25.3" ry="14.7" transform="rotate(72.0 277.5 305.2)" fill="#C97C9D" opacity="0.92"/>
<ellipse cx="246.7" cy="295.2" rx="25.3" ry="14.7" transform="rotate(144.0 246.7 295.2)" fill="#C97C9D" opacity="0.92"/>
<ellipse cx="246.7" cy="262.8" rx="25.3" ry="14.7" transform="rotate(216.0 246.7 262.8)" fill="#C97C9D" opacity="0.92"/>
<ellipse cx="277.5" cy="252.8" rx="25.3" ry="14.7" transform="rotate(288.0 277.5 252.8)" fill="#C97C9D" opacity="0.92"/>
<circle cx="269.0" cy="279.0" r="12.9" fill="#D9A441" opacity="0.95"/>
<ellipse cx="346.0" cy="338.0" rx="24.8" ry="14.4" transform="rotate(0.0 346.0 338.0)" fill="#C97C9D" opacity="0.92"/>
<ellipse cx="338.1" cy="357.1" rx="24.8" ry="14.4" transform="rotate(45.0 338.1 357.1)" fill="#C97C9D" opacity="0.92"/>
<ellipse cx="319.0" cy="365.0" rx="24.8" ry="14.4" transform="rotate(90.0 319.0 365.0)" fill="#C97C9D" opacity="0.92"/>
<ellipse cx="299.9" cy="357.1" rx="24.8" ry="14.4" transform="rotate(135.0 299.9 357.1)" fill="#C97C9D" opacity="0.92"/>
<ellipse cx="292.0" cy="338.0" rx="24.8" ry="14.4" transform="rotate(180.0 292.0 338.0)" fill="#C97C9D" opacity="0.92"/>
<ellipse cx="299.9" cy="318.9" rx="24.8" ry="14.4" transform="rotate(225.0 299.9 318.9)" fill="#C97C9D" opacity="0.92"/>
<ellipse cx="319.0" cy="311.0" rx="24.8" ry="14.4" transform="rotate(270.0 319.0 311.0)" fill="#C97C9D" opacity="0.92"/>
<ellipse cx="338.1" cy="318.9" rx="24.8" ry="14.4" transform="rotate(315.0 338.1 318.9)" fill="#C97C9D" opacity="0.92"/>
<circle cx="319.0" cy="338.0" r="12.6" fill="#D9A441" opacity="0.95"/>
<ellipse cx="400.0" cy="290.0" rx="35.8" ry="20.8" transform="rotate(0.0 400.0 290.0)" fill="#C97C9D" opacity="0.92"/>
<ellipse cx="373.1" cy="327.1" rx="35.8" ry="20.8" transform="rotate(72.0 373.1 327.1)" fill="#C97C9D" opacity="0.92"/>
<ellipse cx="329.4" cy="312.9" rx="35.8" ry="20.8" transform="rotate(144.0 329.4 312.9)" fill="#C97C9D" opacity="0.92"/>
<ellipse cx="329.4" cy="267.1" rx="35.8" ry="20.8" transform="rotate(216.0 329.4 267.1)" fill="#C97C9D" opacity="0.92"/>
<ellipse cx="373.1" cy="252.9" rx="35.8" ry="20.8" transform="rotate(288.0 373.1 252.9)" fill="#C97C9D" opacity="0.92"/>
<circle cx="361.0" cy="290.0" r="18.2" fill="#D9A441" opacity="0.95"/>
<ellipse cx="494.8" cy="341.0" rx="34.7" ry="20.2" transform="rotate(0.0 494.8 341.0)" fill="#C97C9D" opacity="0.92"/>
<ellipse cx="468.7" cy="376.9" rx="34.7" ry="20.2" transform="rotate(72.0 468.7 376.9)" fill="#C97C9D" opacity="0.92"/>
<ellipse cx="426.4" cy="363.2" rx="34.7" ry="20.2" transform="rotate(144.0 426.4 363.2)" fill="#C97C9D" opacity="0.92"/>
<ellipse cx="426.4" cy="318.8" rx="34.7" ry="20.2" transform="rotate(216.0 426.4 318.8)" fill="#C97C9D" opacity="0.92"/>
<ellipse cx="468.7" cy="305.1" rx="34.7" ry="20.2" transform="rotate(288.0 468.7 305.1)" fill="#C97C9D" opacity="0.92"/>
<circle cx="457.0" cy="341.0" r="17.6" fill="#D9A441" opacity="0.95"/>
<ellipse cx="535.4" cy="270.0" rx="35.2" ry="20.5" transform="rotate(0.0 535.4 270.0)" fill="#C97C9D" opacity="0.92"/>
<ellipse cx="524.2" cy="297.2" rx="35.2" ry="20.5" transform="rotate(45.0 524.2 297.2)" fill="#C97C9D" opacity="0.92"/>
<ellipse cx="497.0" cy="308.4" rx="35.2" ry="20.5" transform="rotate(90.0 497.0 308.4)" fill="#C97C9D" opacity="0.92"/>
<ellipse cx="469.8" cy="297.2" rx="35.2" ry="20.5" transform="rotate(135.0 469.8 297.2)" fill="#C97C9D" opacity="0.92"/>
<ellipse cx="458.6" cy="270.0" rx="35.2" ry="20.5" transform="rotate(180.0 458.6 270.0)" fill="#C97C9D" opacity="0.92"/>
<ellipse cx="469.8" cy="242.8" rx="35.2" ry="20.5" transform="rotate(225.0 469.8 242.8)" fill="#C97C9D" opacity="0.92"/>
<ellipse cx="497.0" cy="231.6" rx="35.2" ry="20.5" transform="rotate(270.0 497.0 231.6)" fill="#C97C9D" opacity="0.92"/>
<ellipse cx="524.2" cy="242.8" rx="35.2" ry="20.5" transform="rotate(315.0 524.2 242.8)" fill="#C97C9D" opacity="0.92"/>
<circle cx="497.0" cy="270.0" r="17.9" fill="#D9A441" opacity="0.95"/>
<rect x="20" y="20" width="760" height="760" fill="none" stroke="#5A7A5E" stroke-width="1.5" opacity="0.35"/>
</svg>