<svg xmlns="http://www.w3.org/2000/svg" viewBox="0 0 900 700" width="900" height="700">
<rect width="900" height="700" fill="#EFE8DC"/>
<rect x="90.0" y="244.99999999999997" width="720.0" height="350.0" fill="#E8DFD0" stroke="#3F5C45" stroke-width="2"/>
<rect x="135.0" y="385.00000000000006" width="198.0" height="210.0" fill="#FAF7F2" stroke="#3F5C45" stroke-width="1.5"/>
<rect x="378.0" y="315.0" width="144.0" height="280.0" fill="#FAF7F2" stroke="#3F5C45" stroke-width="1.5"/>
<rect x="567.0" y="385.00000000000006" width="198.0" height="210.0" fill="#FAF7F2" stroke="#3F5C45" stroke-width="1.5"/>
<polygon points="72.0,244.99999999999997 828.0,244.99999999999997 765.0,154.0 135.0,154.0" fill="#3F5C45" opacity="0.85"/>
<line x1="108.0" y1="631.0" x2="108.0" y2="591.0" stroke="#7C9885" stroke-width="2" stroke-linecap="round"/>
<ellipse cx="117.5" cy="591.0" rx="8.7" ry="5.1" transform="rotate(0.0 117.5 591.0)" fill="#C97C9D" opacity="0.92"/>
<ellipse cx="110.9" cy="600.1" rx="8.7" ry="5.1" transform="rotate(72.0 110.9 600.1)" fill="#C97C9D" opacity="0.92"/>
<ellipse cx="100.3" cy="596.6" rx="8.7" ry="5.1" transform="rotate(144.0 100.3 596.6)" fill="#C97C9D" opacity="0.92"/>
<ellipse cx="100.3" cy="585.4" rx="8.7" ry="5.1" transform="rotate(216.0 100.3 585.4)" fill="#C97C9D" opacity="0.92"/>
<ellipse cx="110.9" cy="581.9" rx="8.7" ry="5.1" transform="rotate(288.0 110.9 581.9)" fill="#C97C9D" opacity="0.92"/>
<circle cx="108.0" cy="591.0" r="4.5" fill="#D9A441" opacity="0.95"/>
<line x1="193.5" y1="631.0" x2="193.5" y2="591.0" stroke="#7C9885" stroke-width="2" stroke-linecap="round"/>
<ellipse cx="202.5" cy="591.0" rx="8.3" ry="4.8" transform="rotate(0.0 202.5 591.0)" fill="#C97C9D" opacity="0.92"/>
<ellipse cx="196.3" cy="599.6" rx="8.3" ry="4.8" transform="rotate(72.0 196.3 599.6)" fill="#C97C9D" opacity="0.92"/>
<ellipse cx="186.2" cy="596.3" rx="8.3" ry="4.8" transform="rotate(144.0 186.2 596.3)" fill="#C97C9D" opacity="0.92"/>
<ellipse cx="186.2" cy="585.7" rx="8.3" ry="4.8" transform="rotate(216.0 186.2 585.7)" fill="#C97C9D" opacity="0.92"/>
<ellipse cx="196.3" cy="582.4" rx="8.3" ry="4.8" transform="rotate(288.0 196.3 582.4)" fill="#C97C9D" opacity="0.92"/>
<circle cx="193.5" cy="591.0" r="4.2" fill="#D9A441" opacity="0.95"/>
<line x1="279.0" y1="631.0" x2="279.0" y2="591.0" stroke="#7C9885" stroke-width="2" stroke-linecap="round"/>
<ellipse cx="289.7" cy="591.0" rx="9.8" ry="5.7" transform="rotate(0.0 289.7 591.0)" fill="#C97C9D" opacity="0.92"/>
<ellipse cx="282.3" cy="601.2" rx="9.8" ry="5.7" transform="rotate(72.0 282.3 601.2)" fill="#C97C9D" opacity="0.92"/>
<ellipse cx="270.4" cy="597.3" rx="9.8" ry="5.7" transform="rotate(144.0 270.4 597.3)" fill="#C97C9D" opacity="0.92"/>
<ellipse cx="270.4" cy="584.7" rx="9.8" ry="5.7" transform="rotate(216.0 270.4 584.7)" fill="#C97C9D" opacity="0.92"/>
<ellipse cx="282.3" cy="580.8" rx="9.8" ry="5.7" transform="rotate(288.0 282.3 580.8)" fill="#C97C9D" opacity="0.92"/>
<circle cx="279.0" cy="591.0" r="5.0" fill="#D9A441" opacity="0.95"/>
<line x1="364.5" y1="631.0" x2="364.5" y2="591.0" stroke="#7C9885" stroke-width="2" stroke-linecap="round"/>
<ellipse cx="373.2" cy="591.0" rx="8.0" ry="4.6" transform="rotate(0.0 373.2 591.0)" fill="#8C3A3A" opacity="0.92"/>
<ellipse cx="367.2" cy="599.3" rx="8.0" ry="4.6" transform="rotate(72.0 367.2 599.3)" fill="#8C3A3A" opacity="0.92"/>
<ellipse cx="357.4" cy="596.1" rx="8.0" ry="4.6" transform="rotate(144.0 357.4 596.1)" fill="#8C3A3A" opacity="0.92"/>
<ellipse cx="357.4" cy="585.9" rx="8.0" ry="4.6" transform="rotate(216.0 357.4 585.9)" fill="#8C3A3A" opacity="0.92"/>
<ellipse cx="367.2" cy="582.7" rx="8.0" ry="4.6" transform="rotate(288.0 367.2 582.7)" fill="#8C3A3A" opacity="0.92"/>
<circle cx="364.5" cy="591.0" r="4.1" fill="#D9A441" opacity="0.95"/>
<line x1="450.0" y1="631.0" x2="450.0" y2="591.0" stroke="#7C9885" stroke-width="2" stroke-linecap="round"/>
<ellipse cx="462.8" cy="591.0" rx="11.7" ry="6.8" transform="rotate(0.0 462.8 591.0)" fill="#D9A441" opacity="0.92"/>
<ellipse cx="453.9" cy="603.1" rx="11.7" ry="6.8" transform="rotate(72.0 453.9 603.1)" fill="#D9A441" opacity="0.92"/>
<ellipse cx="439.7" cy="598.5" rx="11.7" ry="6.8" transform="rotate(144.0 439.7 598.5)" fill="#D9A441" opacity="0.92"/>
<ellipse cx="439.7" cy="583.5" rx="11.7" ry="6.8" transform="rotate(216.0 439.7 583.5)" fill="#D9A441" opacity="0.92"/>
<ellipse cx="453.9" cy="578.9" rx="11.7" ry="6.8" transform="rotate(288.0 453.9 578.9)" fill="#D9A441" opacity="0.92"/>
<circle cx="450.0" cy="591.0" r="6.0" fill="#D9A441" opacity="0.95"/>
<line x1="535.5" y1="631.0" x2="535.5" y2="591.0" stroke="#7C9885" stroke-width="2" stroke-linecap="round"/>
<ellipse cx="545.1" cy="591.0" rx="8.8" ry="5.1" transform="rotate(0.0 545.1 591.0)" fill="#8C3A3A" opacity="0.92"/>
<ellipse cx="538.5" cy="600.2" rx="8.8" ry="5.1" transform="rotate(72.0 538.5 600.2)" fill="#8C3A3A" opacity="0.92"/>
<ellipse cx="527.7" cy="596.7" rx="8.8" ry="5.1" transform="rotate(144.0 527.7 596.7)" fill="#8C3A3A" opacity="0.92"/>
<ellipse cx="527.7" cy="585.3" rx="8.8" ry="5.1" transform="rotate(216.0 527.7 585.3)" fill="#8C3A3A" opacity="0.92"/>
<ellipse cx="538.5" cy="581.8" rx="8.8" ry="5.1" transform="rotate(288.0 538.5 581.8)" fill="#8C3A3A" opacity="0.92"/>
<circle cx="535.5" cy="591.0" r="4.5" fill="#D9A441" opacity="0.95"/>
<line x1="621.0" y1="631.0" x2="621.0" y2="591.0" stroke="#7C9885" stroke-width="2" stroke-linecap="round"/>
<ellipse cx="630.3" cy="591.0" rx="8.5" ry="5.0" transform="rotate(0.0 630.3 591.0)" fill="#C97C9D" opacity="0.92"/>
<ellipse cx="623.9" cy="599.9" rx="8.5" ry="5.0" transform="rotate(72.0 623.9 599.9)" fill="#C97C9D" opacity="0.92"/>
<ellipse cx="613.5" cy="596.5" rx="8.5" ry="5.0" transform="rotate(144.0 613.5 596.5)" fill="#C97C9D" opacity="0.92"/>
<ellipse cx="613.5" cy="585.5" rx="8.5" ry="5.0" transform="rotate(216.0 613.5 585.5)" fill="#C97C9D" opacity="0.92"/>
<ellipse cx="623.9" cy="582.1" rx="8.5" ry="5.0" transform="rotate(288.0 623.9 582.1)" fill="#C97C9D" opacity="0.92"/>
<circle cx="621.0" cy="591.0" r="4.3" fill="#D9A441" opacity="0.95"/>
<line x1="706.5" y1="631.0" x2="706.5" y2="591.0" stroke="#7C9885" stroke-width="2" stroke-linecap="round"/>
<ellipse cx="717.2" cy="591.0" rx="9.8" ry="5.7" transform="rotate(0.0 717.2 591.0)" fill="#C97C9D" opacity="0.92"/>
<ellipse cx="709.8" cy="601.1" rx="9.8" ry="5.7" transform="rotate(72.0 709.8 601.1)" fill="#C97C9D" opacity="0.92"/>
<ellipse cx="697.9" cy="597.3" rx="9.8" ry="5.7" transform="rotate(144.0 697.9 597.3)" fill="#C97C9D" opacity="0.92"/>
<ellipse cx="697.9" cy="584.7" rx="9.8" ry="5.7" transform="rotate(216.0 697.9 584.7)" fill="#C97C9D" opacity="0.92"/>
<ellipse cx="709.8" cy="580.9" rx="9.8" ry="5.7" transform="rotate(288.0 709.8 580.9)" fill="#C97C9D" opacity="0.92"/>
<circle cx="706.5" cy="591.0" r="5.0" fill="#D9A441" opacity="0.95"/>
<rect x="16" y="16" width="868" height="668" fill="none" stroke="#3F5C45" stroke-width="1.5" opacity="0.2"/>
</svg>