<svg xmlns="http://www.w3.org/2000/svg" viewBox="0 0 900 700" width="900" height="700">
<rect width="900" height="700" fill="#EFE8DC"/>
<rect x="105.0" y="429.1700661440217" width="60" height="70" rx="6" fill="#E8DFD0" stroke="#3F5C45" stroke-width="1.5"/>
<line x1="117.0" y1="429.1700661440217" x2="117.0" y2="325.6227254614084" stroke="#3F5C45" stroke-width="2.5" stroke-linecap="round"/>
<ellipse cx="129.7" cy="333.6" rx="11.6" ry="6.8" transform="rotate(0.0 129.7 333.6)" fill="#9B8AC4" opacity="0.92"/>
<ellipse cx="123.3" cy="344.5" rx="11.6" ry="6.8" transform="rotate(60.0 123.3 344.5)" fill="#9B8AC4" opacity="0.92"/>
<ellipse cx="110.7" cy="344.5" rx="11.6" ry="6.8" transform="rotate(120.0 110.7 344.5)" fill="#9B8AC4" opacity="0.92"/>
<ellipse cx="104.3" cy="333.6" rx="11.6" ry="6.8" transform="rotate(180.0 104.3 333.6)" fill="#9B8AC4" opacity="0.92"/>
<ellipse cx="110.7" cy="322.6" rx="11.6" ry="6.8" transform="rotate(240.0 110.7 322.6)" fill="#9B8AC4" opacity="0.92"/>
<ellipse cx="123.3" cy="322.6" rx="11.6" ry="6.8" transform="rotate(300.0 123.3 322.6)" fill="#9B8AC4" opacity="0.92"/>
<circle cx="117.0" cy="333.55608142792926" r="5.9" fill="#D9A441" opacity="0.95"/>
<line x1="135.0" y1="429.1700661440217" x2="135.0" y2="338.75500093069525" stroke="#3F5C45" stroke-width="2.5" stroke-linecap="round"/>
<ellipse cx="148.1" cy="333.3" rx="12.0" ry="7.0" transform="rotate(0.0 148.1 333.3)" fill="#C97C9D" opacity="0.92"/>
<ellipse cx="141.6" cy="344.6" rx="12.0" ry="7.0" transform="rotate(60.0 141.6 344.6)" fill="#C97C9D" opacity="0.92"/>
<ellipse cx="128.4" cy="344.6" rx="12.0" ry="7.0" transform="rotate(120.0 128.4 344.6)" fill="#C97C9D" opacity="0.92"/>
<ellipse cx="121.9" cy="333.3" rx="12.0" ry="7.0" transform="rotate(180.0 121.9 333.3)" fill="#C97C9D" opacity="0.92"/>
<ellipse cx="128.4" cy="321.9" rx="12.0" ry="7.0" transform="rotate(240.0 128.4 321.9)" fill="#C97C9D" opacity="0.92"/>
<ellipse cx="141.6" cy="321.9" rx="12.0" ry="7.0" transform="rotate(300.0 141.6 321.9)" fill="#C97C9D" opacity="0.92"/>
<circle cx="135.0" cy="333.29409841283683" r="6.1" fill="#D9A441" opacity="0.95"/>
<line x1="153.0" y1="429.1700661440217" x2="153.0" y2="345.9400313023269" stroke="#3F5C45" stroke-width="2.5" stroke-linecap="round"/>
<ellipse cx="168.4" cy="336.8" rx="14.1" ry="8.2" transform="rotate(0.0 168.4 336.8)" fill="#8C3A3A" opacity="0.92"/>
<ellipse cx="160.7" cy="350.2" rx="14.1" ry="8.2" transform="rotate(60.0 160.7 350.2)" fill="#8C3A3A" opacity="0.92"/>
<ellipse cx="145.3" cy="350.2" rx="14.1" ry="8.2" transform="rotate(120.0 145.3 350.2)" fill="#8C3A3A" opacity="0.92"/>
<ellipse cx="137.6" cy="336.8" rx="14.1" ry="8.2" transform="rotate(180.0 137.6 336.8)" fill="#8C3A3A" opacity="0.92"/>
<ellipse cx="145.3" cy="323.5" rx="14.1" ry="8.2" transform="rotate(240.0 145.3 323.5)" fill="#8C3A3A" opacity="0.92"/>
<ellipse cx="160.7" cy="323.5" rx="14.1" ry="8.2" transform="rotate(300.0 160.7 323.5)" fill="#8C3A3A" opacity="0.92"/>
<circle cx="153.0" cy="336.8140705946036" r="7.2" fill="#D9A441" opacity="0.95"/>
<rect x="262.5" y="436.86401207774867" width="60" height="70" rx="6" fill="#E8DFD0" stroke="#3F5C45" stroke-width="1.5"/>
<line x1="274.5" y1="436.86401207774867" x2="274.5" y2="329.9479687713685" stroke="#3F5C45" stroke-width="2.5" stroke-linecap="round"/>
<ellipse cx="287.8" cy="356.2" rx="12.2" ry="7.1" transform="rotate(0.0 287.8 356.2)" fill="#8C3A3A" opacity="0.92"/>
<ellipse cx="281.2" cy="367.7" rx="12.2" ry="7.1" transform="rotate(60.0 281.2 367.7)" fill="#8C3A3A" opacity="0.92"/>
<ellipse cx="267.8" cy="367.7" rx="12.2" ry="7.1" transform="rotate(120.0 267.8 367.7)" fill="#8C3A3A" opacity="0.92"/>
<ellipse cx="261.2" cy="356.2" rx="12.2" ry="7.1" transform="rotate(180.0 261.2 356.2)" fill="#8C3A3A" opacity="0.92"/>
<ellipse cx="267.8" cy="344.7" rx="12.2" ry="7.1" transform="rotate(240.0 267.8 344.7)" fill="#8C3A3A" opacity="0.92"/>
<ellipse cx="281.2" cy="344.7" rx="12.2" ry="7.1" transform="rotate(300.0 281.2 344.7)" fill="#8C3A3A" opacity="0.92"/>
<circle cx="274.5" cy="356.17819345714736" r="6.2" fill="#D9A441" opacity="0.95"/>
<line x1="292.5" y1="436.86401207774867" x2="292.5" y2="329.2520008233445" stroke="#3F5C45" stroke-width="2.5" stroke-linecap="round"/>
<ellipse cx="304.8" cy="353.4" rx="11.3" ry="6.6" transform="rotate(0.0 304.8 353.4)" fill="#8C3A3A" opacity="0.92"/>
<ellipse cx="298.7" cy="364.1" rx="11.3" ry="6.6" transform="rotate(60.0 298.7 364.1)" fill="#8C3A3A" opacity="0.92"/>
<ellipse cx="286.3" cy="364.1" rx="11.3" ry="6.6" transform="rotate(120.0 286.3 364.1)" fill="#8C3A3A" opacity="0.92"/>
<ellipse cx="280.2" cy="353.4" rx="11.3" ry="6.6" transform="rotate(180.0 280.2 353.4)" fill="#8C3A3A" opacity="0.92"/>
<ellipse cx="286.3" cy="342.8" rx="11.3" ry="6.6" transform="rotate(240.0 286.3 342.8)" fill="#8C3A3A" opacity="0.92"/>
<ellipse cx="298.7" cy="342.8" rx="11.3" ry="6.6" transform="rotate(300.0 298.7 342.8)" fill="#8C3A3A" opacity="0.92"/>
<circle cx="292.5" cy="353.44726458018056" r="5.8" fill="#D9A441" opacity="0.95"/>
<line x1="310.5" y1="436.86401207774867" x2="310.5" y2="332.7722260585818" stroke="#3F5C45" stroke-width="2.5" stroke-linecap="round"/>
<ellipse cx="320.7" cy="344.4" rx="9.3" ry="5.4" transform="rotate(0.0 320.7 344.4)" fill="#9B8AC4" opacity="0.92"/>
<ellipse cx="315.6" cy="353.3" rx="9.3" ry="5.4" transform="rotate(60.0 315.6 353.3)" fill="#9B8AC4" opacity="0.92"/>
<ellipse cx="305.4" cy="353.3" rx="9.3" ry="5.4" transform="rotate(120.0 305.4 353.3)" fill="#9B8AC4" opacity="0.92"/>
<ellipse cx="300.3" cy="344.4" rx="9.3" ry="5.4" transform="rotate(180.0 300.3 344.4)" fill="#9B8AC4" opacity="0.92"/>
<ellipse cx="305.4" cy="335.6" rx="9.3" ry="5.4" transform="rotate(240.0 305.4 335.6)" fill="#9B8AC4" opacity="0.92"/>
<ellipse cx="315.6" cy="335.6" rx="9.3" ry="5.4" transform="rotate(300.0 315.6 335.6)" fill="#9B8AC4" opacity="0.92"/>
<circle cx="310.5" cy="344.4308843131058" r="4.8" fill="#D9A441" opacity="0.95"/>
<rect x="420.0" y="435.453051240919" width="60" height="70" rx="6" fill="#E8DFD0" stroke="#3F5C45" stroke-width="1.5"/>
<line x1="432.0" y1="435.453051240919" x2="432.0" y2="343.5711513088248" stroke="#3F5C45" stroke-width="2.5" stroke-linecap="round"/>
<ellipse cx="443.4" cy="335.7" rx="10.4" ry="6.1" transform="rotate(0.0 443.4 335.7)" fill="#D9A441" opacity="0.92"/>
<ellipse cx="437.7" cy="345.6" rx="10.4" ry="6.1" transform="rotate(60.0 437.7 345.6)" fill="#D9A441" opacity="0.92"/>
<ellipse cx="426.3" cy="345.6" rx="10.4" ry="6.1" transform="rotate(120.0 426.3 345.6)" fill="#D9A441" opacity="0.92"/>
<ellipse cx="420.6" cy="335.7" rx="10.4" ry="6.1" transform="rotate(180.0 420.6 335.7)" fill="#D9A441" opacity="0.92"/>
<ellipse cx="426.3" cy="325.8" rx="10.4" ry="6.1" transform="rotate(240.0 426.3 325.8)" fill="#D9A441" opacity="0.92"/>
<ellipse cx="437.7" cy="325.8" rx="10.4" ry="6.1" transform="rotate(300.0 437.7 325.8)" fill="#D9A441" opacity="0.92"/>
<circle cx="432.0" cy="335.70437229087474" r="5.3" fill="#D9A441" opacity="0.95"/>
<line x1="450.0" y1="435.453051240919" x2="450.0" y2="331.6941605442133" stroke="#3F5C45" stroke-width="2.5" stroke-linecap="round"/>
<ellipse cx="461.0" cy="326.8" rx="10.1" ry="5.9" transform="rotate(0.0 461.0 326.8)" fill="#8C3A3A" opacity="0.92"/>
<ellipse cx="455.5" cy="336.4" rx="10.1" ry="5.9" transform="rotate(60.0 455.5 336.4)" fill="#8C3A3A" opacity="0.92"/>
<ellipse cx="444.5" cy="336.4" rx="10.1" ry="5.9" transform="rotate(120.0 444.5 336.4)" fill="#8C3A3A" opacity="0.92"/>
<ellipse cx="439.0" cy="326.8" rx="10.1" ry="5.9" transform="rotate(180.0 439.0 326.8)" fill="#8C3A3A" opacity="0.92"/>
<ellipse cx="444.5" cy="317.3" rx="10.1" ry="5.9" transform="rotate(240.0 444.5 317.3)" fill="#8C3A3A" opacity="0.92"/>
<ellipse cx="455.5" cy="317.3" rx="10.1" ry="5.9" transform="rotate(300.0 455.5 317.3)" fill="#8C3A3A" opacity="0.92"/>
<circle cx="450.0" cy="326.83560070419264" r="5.1" fill="#D9A441" opacity="0.95"/>
<line x1="468.0" y1="435.453051240919" x2="468.0" y2="331.4088241160209" stroke="#3F5C45" stroke-width="2.5" stroke-linecap="round"/>
<ellipse cx="478.4" cy="343.7" rx="9.6" ry="5.6" transform="rotate(0.0 478.4 343.7)" fill="#9B8AC4" opacity="0.92"/>
<ellipse cx="473.2" cy="352.8" rx="9.6" ry="5.6" transform="rotate(60.0 473.2 352.8)" fill="#9B8AC4" opacity="0.92"/>
<ellipse cx="462.8" cy="352.8" rx="9.6" ry="5.6" transform="rotate(120.0 462.8 352.8)" fill="#9B8AC4" opacity="0.92"/>
<ellipse cx="457.6" cy="343.7" rx="9.6" ry="5.6" transform="rotate(180.0 457.6 343.7)" fill="#9B8AC4" opacity="0.92"/>
<ellipse cx="462.8" cy="334.7" rx="9.6" ry="5.6" transform="rotate(240.0 462.8 334.7)" fill="#9B8AC4" opacity="0.92"/>
<ellipse cx="473.2" cy="334.7" rx="9.6" ry="5.6" transform="rotate(300.0 473.2 334.7)" fill="#9B8AC4" opacity="0.92"/>
<circle cx="468.0" cy="343.7446480429048" r="4.9" fill="#D9A441" opacity="0.95"/>
<rect x="577.5" y="383.3713487072084" width="60" height="70" rx="6" fill="#E8DFD0" stroke="#3F5C45" stroke-width="1.5"/>
<line x1="589.5" y1="383.3713487072084" x2="589.5" y2="282.2105529906986" stroke="#3F5C45" stroke-width="2.5" stroke-linecap="round"/>
<ellipse cx="601.8" cy="303.2" rx="11.3" ry="6.6" transform="rotate(0.0 601.8 303.2)" fill="#9B8AC4" opacity="0.92"/>
<ellipse cx="595.7" cy="313.8" rx="11.3" ry="6.6" transform="rotate(60.0 595.7 313.8)" fill="#9B8AC4" opacity="0.92"/>
<ellipse cx="583.3" cy="313.8" rx="11.3" ry="6.6" transform="rotate(120.0 583.3 313.8)" fill="#9B8AC4" opacity="0.92"/>
<ellipse cx="577.2" cy="303.2" rx="11.3" ry="6.6" transform="rotate(180.0 577.2 303.2)" fill="#9B8AC4" opacity="0.92"/>
<ellipse cx="583.3" cy="292.5" rx="11.3" ry="6.6" transform="rotate(240.0 583.3 292.5)" fill="#9B8AC4" opacity="0.92"/>
<ellipse cx="595.7" cy="292.5" rx="11.3" ry="6.6" transform="rotate(300.0 595.7 292.5)" fill="#9B8AC4" opacity="0.92"/>
<circle cx="589.5" cy="303.16270168921403" r="5.8" fill="#D9A441" opacity="0.95"/>
<line x1="607.5" y1="383.3713487072084" x2="607.5" y2="285.54736614363856" stroke="#3F5C45" stroke-width="2.5" stroke-linecap="round"/>
<ellipse cx="622.0" cy="287.8" rx="13.3" ry="7.8" transform="rotate(0.0 622.0 287.8)" fill="#9B8AC4" opacity="0.92"/>
<ellipse cx="614.8" cy="300.4" rx="13.3" ry="7.8" transform="rotate(60.0 614.8 300.4)" fill="#9B8AC4" opacity="0.92"/>
<ellipse cx="600.2" cy="300.4" rx="13.3" ry="7.8" transform="rotate(120.0 600.2 300.4)" fill="#9B8AC4" opacity="0.92"/>
<ellipse cx="593.0" cy="287.8" rx="13.3" ry="7.8" transform="rotate(180.0 593.0 287.8)" fill="#9B8AC4" opacity="0.92"/>
<ellipse cx="600.2" cy="275.2" rx="13.3" ry="7.8" transform="rotate(240.0 600.2 275.2)" fill="#9B8AC4" opacity="0.92"/>
<ellipse cx="614.8" cy="275.2" rx="13.3" ry="7.8" transform="rotate(300.0 614.8 275.2)" fill="#9B8AC4" opacity="0.92"/>
<circle cx="607.5" cy="287.76610053607413" r="6.8" fill="#D9A441" opacity="0.95"/>
<line x1="625.5" y1="383.3713487072084" x2="625.5" y2="292.29920298552696" stroke="#3F5C45" stroke-width="2.5" stroke-linecap="round"/>
<ellipse cx="640.3" cy="276.5" rx="13.6" ry="7.9" transform="rotate(0.0 640.3 276.5)" fill="#8C3A3A" opacity="0.92"/>
<ellipse cx="632.9" cy="289.3" rx="13.6" ry="7.9" transform="rotate(60.0 632.9 289.3)" fill="#8C3A3A" opacity="0.92"/>
<ellipse cx="618.1" cy="289.3" rx="13.6" ry="7.9" transform="rotate(120.0 618.1 289.3)" fill="#8C3A3A" opacity="0.92"/>
<ellipse cx="610.7" cy="276.5" rx="13.6" ry="7.9" transform="rotate(180.0 610.7 276.5)" fill="#8C3A3A" opacity="0.92"/>
<ellipse cx="618.1" cy="263.7" rx="13.6" ry="7.9" transform="rotate(240.0 618.1 263.7)" fill="#8C3A3A" opacity="0.92"/>
<ellipse cx="632.9" cy="263.7" rx="13.6" ry="7.9" transform="rotate(300.0 632.9 263.7)" fill="#8C3A3A" opacity="0.92"/>
<circle cx="625.5" cy="276.4831545018983" r="6.9" fill="#D9A441" opacity="0.95"/>
<rect x="735.0" y="394.59068423004817" width="60" height="70" rx="6" fill="#E8DFD0" stroke="#3F5C45" stroke-width="1.5"/>
<line x1="747.0" y1="394.59068423004817" x2="747.0" y2="313.8142134498296" stroke="#3F5C45" stroke-width="2.5" stroke-linecap="round"/>
<ellipse cx="757.3" cy="303.3" rx="9.4" ry="5.5" transform="rotate(0.0 757.3 303.3)" fill="#C97C9D" opacity="0.92"/>
<ellipse cx="752.1" cy="312.2" rx="9.4" ry="5.5" transform="rotate(60.0 752.1 312.2)" fill="#C97C9D" opacity="0.92"/>
<ellipse cx="741.9" cy="312.2" rx="9.4" ry="5.5" transform="rotate(120.0 741.9 312.2)" fill="#C97C9D" opacity="0.92"/>
<ellipse cx="736.7" cy="303.3" rx="9.4" ry="5.5" transform="rotate(180.0 736.7 303.3)" fill="#C97C9D" opacity="0.92"/>
<ellipse cx="741.9" cy="294.4" rx="9.4" ry="5.5" transform="rotate(240.0 741.9 294.4)" fill="#C97C9D" opacity="0.92"/>
<ellipse cx="752.1" cy="294.4" rx="9.4" ry="5.5" transform="rotate(300.0 752.1 294.4)" fill="#C97C9D" opacity="0.92"/>
<circle cx="747.0" cy="303.29233507639503" r="4.8" fill="#D9A441" opacity="0.95"/>
<line x1="765.0" y1="394.59068423004817" x2="765.0" y2="286.5285001953765" stroke="#3F5C45" stroke-width="2.5" stroke-linecap="round"/>
<ellipse cx="777.3" cy="300.3" rx="11.3" ry="6.6" transform="rotate(0.0 777.3 300.3)" fill="#C97C9D" opacity="0.92"/>
<ellipse cx="771.1" cy="311.0" rx="11.3" ry="6.6" transform="rotate(60.0 771.1 311.0)" fill="#C97C9D" opacity="0.92"/>
<ellipse cx="758.9" cy="311.0" rx="11.3" ry="6.6" transform="rotate(120.0 758.9 311.0)" fill="#C97C9D" opacity="0.92"/>
<ellipse cx="752.7" cy="300.3" rx="11.3" ry="6.6" transform="rotate(180.0 752.7 300.3)" fill="#C97C9D" opacity="0.92"/>
<ellipse cx="758.9" cy="289.7" rx="11.3" ry="6.6" transform="rotate(240.0 758.9 289.7)" fill="#C97C9D" opacity="0.92"/>
<ellipse cx="771.1" cy="289.7" rx="11.3" ry="6.6" transform="rotate(300.0 771.1 289.7)" fill="#C97C9D" opacity="0.92"/>
<circle cx="765.0" cy="300.32200298317713" r="5.7" fill="#D9A441" opacity="0.95"/>
<line x1="783.0" y1="394.59068423004817" x2="783.0" y2="292.5286963000232" stroke="#3F5C45" stroke-width="2.5" stroke-linecap="round"/>
<ellipse cx="794.4" cy="300.8" rx="10.5" ry="6.1" transform="rotate(0.0 794.4 300.8)" fill="#8C3A3A" opacity="0.92"/>
<ellipse cx="788.7" cy="310.6" rx="10.5" ry="6.1" transform="rotate(60.0 788.7 310.6)" fill="#8C3A3A" opacity="0.92"/>
<ellipse cx="777.3" cy="310.6" rx="10.5" ry="6.1" transform="rotate(120.0 777.3 310.6)" fill="#8C3A3A" opacity="0.92"/>
<ellipse cx="771.6" cy="300.8" rx="10.5" ry="6.1" transform="rotate(180.0 771.6 300.8)" fill="#8C3A3A" opacity="0.92"/>
<ellipse cx="777.3" cy="290.9" rx="10.5" ry="6.1" transform="rotate(240.0 777.3 290.9)" fill="#8C3A3A" opacity="0.92"/>
<ellipse cx="788.7" cy="290.9" rx="10.5" ry="6.1" transform="rotate(300.0 788.7 290.9)" fill="#8C3A3A" opacity="0.92"/>
<circle cx="783.0" cy="300.7594875556312" r="5.3" fill="#D9A441" opacity="0.95"/>
<rect x="16" y="16" width="868" height="668" fill="none" stroke="#3F5C45" stroke-width="1.5" opacity="0.2"/>
</svg>