<svg xmlns="http://www.w3.org/2000/svg" viewBox="0 0 900 700" width="900" height="700">
<rect width="900" height="700" fill="#EFE8DC"/>
<rect x="105.0" y="411.19036428078556" width="60" height="70" rx="6" fill="#E8DFD0" stroke="#3F5C45" stroke-width="1.5"/>
<line x1="117.0" y1="411.19036428078556" x2="117.0" y2="314.3971926983707" stroke="#3F5C45" stroke-width="2.5" stroke-linecap="round"/>
<ellipse cx="129.4" cy="303.5" rx="11.4" ry="6.6" transform="rotate(0.0 129.4 303.5)" fill="#D9A441" opacity="0.92"/>
<ellipse cx="123.2" cy="314.2" rx="11.4" ry="6.6" transform="rotate(60.0 123.2 314.2)" fill="#D9A441" opacity="0.92"/>
<ellipse cx="110.8" cy="314.2" rx="11.4" ry="6.6" transform="rotate(120.0 110.8 314.2)" fill="#D9A441" opacity="0.92"/>
<ellipse cx="104.6" cy="303.5" rx="11.4" ry="6.6" transform="rotate(180.0 104.6 303.5)" fill="#D9A441" opacity="0.92"/>
<ellipse cx="110.8" cy="292.7" rx="11.4" ry="6.6" transform="rotate(240.0 110.8 292.7)" fill="#D9A441" opacity="0.92"/>
<ellipse cx="123.2" cy="292.7" rx="11.4" ry="6.6" transform="rotate(300.0 123.2 292.7)" fill="#D9A441" opacity="0.92"/>
<circle cx="117.0" cy="303.4640467600737" r="5.8" fill="#D9A441" opacity="0.95"/>
<line x1="135.0" y1="411.19036428078556" x2="135.0" y2="325.65055396513924" stroke="#3F5C45" stroke-width="2.5" stroke-linecap="round"/>
<ellipse cx="148.4" cy="315.8" rx="12.3" ry="7.1" transform="rotate(0.0 148.4 315.8)" fill="#D9A441" opacity="0.92"/>
<ellipse cx="141.7" cy="327.4" rx="12.3" ry="7.1" transform="rotate(60.0 141.7 327.4)" fill="#D9A441" opacity="0.92"/>
<ellipse cx="128.3" cy="327.4" rx="12.3" ry="7.1" transform="rotate(120.0 128.3 327.4)" fill="#D9A441" opacity="0.92"/>
<ellipse cx="121.6" cy="315.8" rx="12.3" ry="7.1" transform="rotate(180.0 121.6 315.8)" fill="#D9A441" opacity="0.92"/>
<ellipse cx="128.3" cy="304.2" rx="12.3" ry="7.1" transform="rotate(240.0 128.3 304.2)" fill="#D9A441" opacity="0.92"/>
<ellipse cx="141.7" cy="304.2" rx="12.3" ry="7.1" transform="rotate(300.0 141.7 304.2)" fill="#D9A441" opacity="0.92"/>
<circle cx="135.0" cy="315.8331051095314" r="6.2" fill="#D9A441" opacity="0.95"/>
<line x1="153.0" y1="411.19036428078556" x2="153.0" y2="328.366660593909" stroke="#3F5C45" stroke-width="2.5" stroke-linecap="round"/>
<ellipse cx="163.1" cy="322.1" rx="9.3" ry="5.4" transform="rotate(0.0 163.1 322.1)" fill="#8C3A3A" opacity="0.92"/>
<ellipse cx="158.1" cy="330.9" rx="9.3" ry="5.4" transform="rotate(60.0 158.1 330.9)" fill="#8C3A3A" opacity="0.92"/>
<ellipse cx="147.9" cy="330.9" rx="9.3" ry="5.4" transform="rotate(120.0 147.9 330.9)" fill="#8C3A3A" opacity="0.92"/>
<ellipse cx="142.9" cy="322.1" rx="9.3" ry="5.4" transform="rotate(180.0 142.9 322.1)" fill="#8C3A3A" opacity="0.92"/>
<ellipse cx="147.9" cy="313.3" rx="9.3" ry="5.4" transform="rotate(240.0 147.9 313.3)" fill="#8C3A3A" opacity="0.92"/>
<ellipse cx="158.1" cy="313.3" rx="9.3" ry="5.4" transform="rotate(300.0 158.1 313.3)" fill="#8C3A3A" opacity="0.92"/>
<circle cx="153.0" cy="322.0883264020498" r="4.7" fill="#D9A441" opacity="0.95"/>
<rect x="262.5" y="422.6349204672536" width="60" height="70" rx="6" fill="#E8DFD0" stroke="#3F5C45" stroke-width="1.5"/>
<line x1="274.5" y1="422.6349204672536" x2="274.5" y2="330.75012117350656" stroke="#3F5C45" stroke-width="2.5" stroke-linecap="round"/>
<ellipse cx="288.5" cy="329.0" rx="12.9" ry="7.5" transform="rotate(0.0 288.5 329.0)" fill="#D9A441" opacity="0.92"/>
<ellipse cx="281.5" cy="341.2" rx="12.9" ry="7.5" transform="rotate(60.0 281.5 341.2)" fill="#D9A441" opacity="0.92"/>
<ellipse cx="267.5" cy="341.2" rx="12.9" ry="7.5" transform="rotate(120.0 267.5 341.2)" fill="#D9A441" opacity="0.92"/>
<ellipse cx="260.5" cy="329.0" rx="12.9" ry="7.5" transform="rotate(180.0 260.5 329.0)" fill="#D9A441" opacity="0.92"/>
<ellipse cx="267.5" cy="316.9" rx="12.9" ry="7.5" transform="rotate(240.0 267.5 316.9)" fill="#D9A441" opacity="0.92"/>
<ellipse cx="281.5" cy="316.9" rx="12.9" ry="7.5" transform="rotate(300.0 281.5 316.9)" fill="#D9A441" opacity="0.92"/>
<circle cx="274.5" cy="329.0450744998291" r="6.5" fill="#D9A441" opacity="0.95"/>
<line x1="292.5" y1="422.6349204672536" x2="292.5" y2="323.941066921692" stroke="#3F5C45" stroke-width="2.5" stroke-linecap="round"/>
<ellipse cx="302.5" cy="317.7" rx="9.1" ry="5.3" transform="rotate(0.0 302.5 317.7)" fill="#8C3A3A" opacity="0.92"/>
<ellipse cx="297.5" cy="326.3" rx="9.1" ry="5.3" transform="rotate(60.0 297.5 326.3)" fill="#8C3A3A" opacity="0.92"/>
<ellipse cx="287.5" cy="326.3" rx="9.1" ry="5.3" transform="rotate(120.0 287.5 326.3)" fill="#8C3A3A" opacity="0.92"/>
<ellipse cx="282.5" cy="317.7" rx="9.1" ry="5.3" transform="rotate(180.0 282.5 317.7)" fill="#8C3A3A" opacity="0.92"/>
<ellipse cx="287.5" cy="309.0" rx="9.1" ry="5.3" transform="rotate(240.0 287.5 309.0)" fill="#8C3A3A" opacity="0.92"/>
<ellipse cx="297.5" cy="309.0" rx="9.1" ry="5.3" transform="rotate(300.0 297.5 309.0)" fill="#8C3A3A" opacity="0.92"/>
<circle cx="292.5" cy="317.68387170675425" r="4.7" fill="#D9A441" opacity="0.95"/>
<line x1="310.5" y1="422.6349204672536" x2="310.5" y2="336.92867258331574" stroke="#3F5C45" stroke-width="2.5" stroke-linecap="round"/>
<ellipse cx="320.3" cy="335.4" rx="9.0" ry="5.2" transform="rotate(0.0 320.3 335.4)" fill="#9B8AC4" opacity="0.92"/>
<ellipse cx="315.4" cy="343.8" rx="9.0" ry="5.2" transform="rotate(60.0 315.4 343.8)" fill="#9B8AC4" opacity="0.92"/>
<ellipse cx="305.6" cy="343.8" rx="9.0" ry="5.2" transform="rotate(120.0 305.6 343.8)" fill="#9B8AC4" opacity="0.92"/>
<ellipse cx="300.7" cy="335.4" rx="9.0" ry="5.2" transform="rotate(180.0 300.7 335.4)" fill="#9B8AC4" opacity="0.92"/>
<ellipse cx="305.6" cy="326.9" rx="9.0" ry="5.2" transform="rotate(240.0 305.6 326.9)" fill="#9B8AC4" opacity="0.92"/>
<ellipse cx="315.4" cy="326.9" rx="9.0" ry="5.2" transform="rotate(300.0 315.4 326.9)" fill="#9B8AC4" opacity="0.92"/>
<circle cx="310.5" cy="335.3766300572972" r="4.6" fill="#D9A441" opacity="0.95"/>
<rect x="420.0" y="401.1034682038612" width="60" height="70" rx="6" fill="#E8DFD0" stroke="#3F5C45" stroke-width="1.5"/>
<line x1="432.0" y1="401.1034682038612" x2="432.0" y2="303.3746848998195" stroke="#3F5C45" stroke-width="2.5" stroke-linecap="round"/>
<ellipse cx="443.0" cy="315.2" rx="10.1" ry="5.9" transform="rotate(0.0 443.0 315.2)" fill="#C97C9D" opacity="0.92"/>
<ellipse cx="437.5" cy="324.8" rx="10.1" ry="5.9" transform="rotate(60.0 437.5 324.8)" fill="#C97C9D" opacity="0.92"/>
<ellipse cx="426.5" cy="324.8" rx="10.1" ry="5.9" transform="rotate(120.0 426.5 324.8)" fill="#C97C9D" opacity="0.92"/>
<ellipse cx="421.0" cy="315.2" rx="10.1" ry="5.9" transform="rotate(180.0 421.0 315.2)" fill="#C97C9D" opacity="0.92"/>
<ellipse cx="426.5" cy="305.7" rx="10.1" ry="5.9" transform="rotate(240.0 426.5 305.7)" fill="#C97C9D" opacity="0.92"/>
<ellipse cx="437.5" cy="305.7" rx="10.1" ry="5.9" transform="rotate(300.0 437.5 305.7)" fill="#C97C9D" opacity="0.92"/>
<circle cx="432.0" cy="315.2438268785832" r="5.1" fill="#D9A441" opacity="0.95"/>
<line x1="450.0" y1="401.1034682038612" x2="450.0" y2="306.1102736376575" stroke="#3F5C45" stroke-width="2.5" stroke-linecap="round"/>
<ellipse cx="462.3" cy="301.2" rx="11.3" ry="6.6" transform="rotate(0.0 462.3 301.2)" fill="#C97C9D" opacity="0.92"/>
<ellipse cx="456.2" cy="311.9" rx="11.3" ry="6.6" transform="rotate(60.0 456.2 311.9)" fill="#C97C9D" opacity="0.92"/>
<ellipse cx="443.8" cy="311.9" rx="11.3" ry="6.6" transform="rotate(120.0 443.8 311.9)" fill="#C97C9D" opacity="0.92"/>
<ellipse cx="437.7" cy="301.2" rx="11.3" ry="6.6" transform="rotate(180.0 437.7 301.2)" fill="#C97C9D" opacity="0.92"/>
<ellipse cx="443.8" cy="290.5" rx="11.3" ry="6.6" transform="rotate(240.0 443.8 290.5)" fill="#C97C9D" opacity="0.92"/>
<ellipse cx="456.2" cy="290.5" rx="11.3" ry="6.6" transform="rotate(300.0 456.2 290.5)" fill="#C97C9D" opacity="0.92"/>
<circle cx="450.0" cy="301.2299822471502" r="5.8" fill="#D9A441" opacity="0.95"/>
<line x1="468.0" y1="401.1034682038612" x2="468.0" y2="308.90010606730584" stroke="#3F5C45" stroke-width="2.5" stroke-linecap="round"/>
<ellipse cx="483.2" cy="304.6" rx="13.9" ry="8.1" transform="rotate(0.0 483.2 304.6)" fill="#8C3A3A" opacity="0.92"/>
<ellipse cx="475.6" cy="317.7" rx="13.9" ry="8.1" transform="rotate(60.0 475.6 317.7)" fill="#8C3A3A" opacity="0.92"/>
<ellipse cx="460.4" cy="317.7" rx="13.9" ry="8.1" transform="rotate(120.0 460.4 317.7)" fill="#8C3A3A" opacity="0.92"/>
<ellipse cx="452.8" cy="304.6" rx="13.9" ry="8.1" transform="rotate(180.0 452.8 304.6)" fill="#8C3A3A" opacity="0.92"/>
<ellipse cx="460.4" cy="291.4" rx="13.9" ry="8.1" transform="rotate(240.0 460.4 291.4)" fill="#8C3A3A" opacity="0.92"/>
<ellipse cx="475.6" cy="291.4" rx="13.9" ry="8.1" transform="rotate(300.0 475.6 291.4)" fill="#8C3A3A" opacity="0.92"/>
<circle cx="468.0" cy="304.5654361350219" r="7.1" fill="#D9A441" opacity="0.95"/>
<rect x="577.5" y="431.624769719836" width="60" height="70" rx="6" fill="#E8DFD0" stroke="#3F5C45" stroke-width="1.5"/>
<line x1="589.5" y1="431.624769719836" x2="589.5" y2="342.16645320936954" stroke="#3F5C45" stroke-width="2.5" stroke-linecap="round"/>
<ellipse cx="600.8" cy="344.7" rx="10.4" ry="6.0" transform="rotate(0.0 600.8 344.7)" fill="#8C3A3A" opacity="0.92"/>
<ellipse cx="595.2" cy="354.6" rx="10.4" ry="6.0" transform="rotate(60.0 595.2 354.6)" fill="#8C3A3A" opacity="0.92"/>
<ellipse cx="583.8" cy="354.6" rx="10.4" ry="6.0" transform="rotate(120.0 583.8 354.6)" fill="#8C3A3A" opacity="0.92"/>
<ellipse cx="578.2" cy="344.7" rx="10.4" ry="6.0" transform="rotate(180.0 578.2 344.7)" fill="#8C3A3A" opacity="0.92"/>
<ellipse cx="583.8" cy="334.9" rx="10.4" ry="6.0" transform="rotate(240.0 583.8 334.9)" fill="#8C3A3A" opacity="0.92"/>
<ellipse cx="595.2" cy="334.9" rx="10.4" ry="6.0" transform="rotate(300.0 595.2 334.9)" fill="#8C3A3A" opacity="0.92"/>
<circle cx="589.5" cy="344.7347926715989" r="5.3" fill="#D9A441" opacity="0.95"/>
<line x1="607.5" y1="431.624769719836" x2="607.5" y2="334.73050190009883" stroke="#3F5C45" stroke-width="2.5" stroke-linecap="round"/>
<ellipse cx="617.7" cy="348.4" rx="9.4" ry="5.5" transform="rotate(0.0 617.7 348.4)" fill="#C97C9D" opacity="0.92"/>
<ellipse cx="612.6" cy="357.3" rx="9.4" ry="5.5" transform="rotate(60.0 612.6 357.3)" fill="#C97C9D" opacity="0.92"/>
<ellipse cx="602.4" cy="357.3" rx="9.4" ry="5.5" transform="rotate(120.0 602.4 357.3)" fill="#C97C9D" opacity="0.92"/>
<ellipse cx="597.3" cy="348.4" rx="9.4" ry="5.5" transform="rotate(180.0 597.3 348.4)" fill="#C97C9D" opacity="0.92"/>
<ellipse cx="602.4" cy="339.5" rx="9.4" ry="5.5" transform="rotate(240.0 602.4 339.5)" fill="#C97C9D" opacity="0.92"/>
<ellipse cx="612.6" cy="339.5" rx="9.4" ry="5.5" transform="rotate(300.0 612.6 339.5)" fill="#C97C9D" opacity="0.92"/>
<circle cx="607.5" cy="348.3869622521668" r="4.8" fill="#D9A441" opacity="0.95"/>
<line x1="625.5" y1="431.624769719836" x2="625.5" y2="340.029363768658" stroke="#3F5C45" stroke-width="2.5" stroke-linecap="round"/>
<ellipse cx="640.2" cy="322.9" rx="13.5" ry="7.8" transform="rotate(0.0 640.2 322.9)" fill="#8C3A3A" opacity="0.92"/>
<ellipse cx="632.8" cy="335.6" rx="13.5" ry="7.8" transform="rotate(60.0 632.8 335.6)" fill="#8C3A3A" opacity="0.92"/>
<ellipse cx="618.2" cy="335.6" rx="13.5" ry="7.8" transform="rotate(120.0 618.2 335.6)" fill="#8C3A3A" opacity="0.92"/>
<ellipse cx="610.8" cy="322.9" rx="13.5" ry="7.8" transform="rotate(180.0 610.8 322.9)" fill="#8C3A3A" opacity="0.92"/>
<ellipse cx="618.2" cy="310.2" rx="13.5" ry="7.8" transform="rotate(240.0 618.2 310.2)" fill="#8C3A3A" opacity="0.92"/>
<ellipse cx="632.8" cy="310.2" rx="13.5" ry="7.8" transform="rotate(300.0 632.8 310.2)" fill="#8C3A3A" opacity="0.92"/>
<circle cx="625.5" cy="322.8834982202416" r="6.9" fill="#D9A441" opacity="0.95"/>
<rect x="735.0" y="392.08013427836744" width="60" height="70" rx="6" fill="#E8DFD0" stroke="#3F5C45" stroke-width="1.5"/>
<line x1="747.0" y1="392.08013427836744" x2="747.0" y2="284.2688698282036" stroke="#3F5C45" stroke-width="2.5" stroke-linecap="round"/>
<ellipse cx="758.9" cy="310.5" rx="10.9" ry="6.3" transform="rotate(0.0 758.9 310.5)" fill="#9B8AC4" opacity="0.92"/>
<ellipse cx="752.9" cy="320.8" rx="10.9" ry="6.3" transform="rotate(60.0 752.9 320.8)" fill="#9B8AC4" opacity="0.92"/>
<ellipse cx="741.1" cy="320.8" rx="10.9" ry="6.3" transform="rotate(120.0 741.1 320.8)" fill="#9B8AC4" opacity="0.92"/>
<ellipse cx="735.1" cy="310.5" rx="10.9" ry="6.3" transform="rotate(180.0 735.1 310.5)" fill="#9B8AC4" opacity="0.92"/>
<ellipse cx="741.1" cy="300.2" rx="10.9" ry="6.3" transform="rotate(240.0 741.1 300.2)" fill="#9B8AC4" opacity="0.92"/>
<ellipse cx="752.9" cy="300.2" rx="10.9" ry="6.3" transform="rotate(300.0 752.9 300.2)" fill="#9B8AC4" opacity="0.92"/>
<circle cx="747.0" cy="310.51045650748745" r="5.5" fill="#D9A441" opacity="0.95"/>
<line x1="765.0" y1="392.08013427836744" x2="765.0" y2="299.4863922490645" stroke="#3F5C45" stroke-width="2.5" stroke-linecap="round"/>
<ellipse cx="775.8" cy="295.1" rx="9.9" ry="5.8" transform="rotate(0.0 775.8 295.1)" fill="#C97C9D" opacity="0.92"/>
<ellipse cx="770.4" cy="304.4" rx="9.9" ry="5.8" transform="rotate(60.0 770.4 304.4)" fill="#C97C9D" opacity="0.92"/>
<ellipse cx="759.6" cy="304.4" rx="9.9" ry="5.8" transform="rotate(120.0 759.6 304.4)" fill="#C97C9D" opacity="0.92"/>
<ellipse cx="754.2" cy="295.1" rx="9.9" ry="5.8" transform="rotate(180.0 754.2 295.1)" fill="#C97C9D" opacity="0.92"/>
<ellipse cx="759.6" cy="285.7" rx="9.9" ry="5.8" transform="rotate(240.0 759.6 285.7)" fill="#C97C9D" opacity="0.92"/>
<ellipse cx="770.4" cy="285.7" rx="9.9" ry="5.8" transform="rotate(300.0 770.4 285.7)" fill="#C97C9D" opacity="0.92"/>
<circle cx="765.0" cy="295.09288190226073" r="5.0" fill="#D9A441" opacity="0.95"/>
<line x1="783.0" y1="392.08013427836744" x2="783.0" y2="301.9733491850128" stroke="#3F5C45" stroke-width="2.5" stroke-linecap="round"/>
<ellipse cx="792.7" cy="302.7" rx="8.9" ry="5.2" transform="rotate(0.0 792.7 302.7)" fill="#9B8AC4" opacity="0.92"/>
<ellipse cx="787.8" cy="311.1" rx="8.9" ry="5.2" transform="rotate(60.0 787.8 311.1)" fill="#9B8AC4" opacity="0.92"/>
<ellipse cx="778.2" cy="311.1" rx="8.9" ry="5.2" transform="rotate(120.0 778.2 311.1)" fill="#9B8AC4" opacity="0.92"/>
<ellipse cx="773.3" cy="302.7" rx="8.9" ry="5.2" transform="rotate(180.0 773.3 302.7)" fill="#9B8AC4" opacity="0.92"/>
<ellipse cx="778.2" cy="294.4" rx="8.9" ry="5.2" transform="rotate(240.0 778.2 294.4)" fill="#9B8AC4" opacity="0.92"/>
<ellipse cx="787.8" cy="294.4" rx="8.9" ry="5.2" transform="rotate(300.0 787.8 294.4)" fill="#9B8AC4" opacity="0.92"/>
<circle cx="783.0" cy="302.7438454091536" r="4.5" fill="#D9A441" opacity="0.95"/>
<rect x="16" y="16" width="868" height="668" fill="none" stroke="#3F5C45" stroke-width="1.5" opacity="0.2"/>
</svg>